<svg id="Layer_1" data-name="Layer 1" xmlns="http://www.w3.org/2000/svg" xmlns:xlink="http://www.w3.org/1999/xlink" viewBox="0 0 107.26 91.21">
  <defs>
    <linearGradient id="linear-gradient" x1="35.07" y1="45.61" x2="75.42" y2="45.61" gradientUnits="userSpaceOnUse">
      <stop offset="0" stop-color="#55b6ff"/>
      <stop offset="0.25" stop-color="#44c5fc"/>
      <stop offset="0.73" stop-color="#16ecf3"/>
      <stop offset="0.95" stop-color="#00ffef"/>
    </linearGradient>
    <linearGradient id="linear-gradient-2" x1="48.53" y1="40.21" x2="62.78" y2="40.21" xlink:href="#linear-gradient"/>
    <linearGradient id="linear-gradient-3" x1="36.27" y1="58.94" x2="44.61" y2="58.94" xlink:href="#linear-gradient"/>
    <linearGradient id="linear-gradient-4" x1="30" y1="61.46" x2="42.91" y2="61.46" xlink:href="#linear-gradient"/>
  </defs>
  <title>Freedom_Ancillary_Icons</title>
  <g>
    <path d="M63.69,75.68a9.74,9.74,0,0,1-9.22-6.16,14.1,14.1,0,0,1-.81-6.39c0-.6,0-1.22,0-1.83-.06-5-4.3-8.09-8.4-11.12-1-.71-1.87-1.38-2.73-2.07a18.91,18.91,0,0,1-7.39-17.38,15.88,15.88,0,0,1,6.55-11.6,20.25,20.25,0,0,1,16-3.11,19.9,19.9,0,0,1,10.94,6.75A26.27,26.27,0,0,1,74.3,34.31a1.4,1.4,0,0,1-2.75.57c-1.41-6.79-6.4-14.4-14.37-16.12a17.43,17.43,0,0,0-13.8,2.64A13.16,13.16,0,0,0,38,31c-.59,6.1,1.49,11,6.36,14.93.82.65,1.7,1.31,2.64,2,4.43,3.27,9.46,7,9.53,13.34,0,.67,0,1.32,0,2a11.53,11.53,0,0,0,.58,5.18,7.05,7.05,0,0,0,7.39,4.43,9.25,9.25,0,0,0,8.21-6.78,1.41,1.41,0,0,1,2.73.67,12.07,12.07,0,0,1-10.71,8.91C64.34,75.66,64,75.68,63.69,75.68Z" fill="url(#linear-gradient)"/>
    <path d="M60.84,49.11a1.36,1.36,0,0,1-.58-.13c-2.12-1-3.38-2.1-3.86-3.49a4,4,0,0,1,.32-3.22A12.24,12.24,0,0,1,58.37,40c1.41-1.66,1.93-2.44,1.41-3.58a4.9,4.9,0,0,0-4.46-2.31,4.32,4.32,0,0,0-4,4.29,1.4,1.4,0,0,1-2.8-.18,7.14,7.14,0,0,1,6.63-6.91c2.53-.15,5.9,1.19,7.16,3.94s-.49,5-1.81,6.56a10.63,10.63,0,0,0-1.3,1.75,1.21,1.21,0,0,0-.16,1c.12.35.59,1,2.37,1.86a1.4,1.4,0,0,1,.7,1.86A1.42,1.42,0,0,1,60.84,49.11Z" fill="url(#linear-gradient-2)"/>
    <path d="M43.21,64.94a1.4,1.4,0,0,1-.68-.17c-7.4-4-6.22-10.43-6.16-10.7a1.4,1.4,0,0,1,2.75.54c0,.21-.76,4.68,4.76,7.7a1.4,1.4,0,0,1-.67,2.63Z" fill="url(#linear-gradient-3)"/>
    <path d="M41.51,71.22a1.36,1.36,0,0,1-.48-.09c-6.88-2.48-9.47-7.33-10.43-11a18.51,18.51,0,0,1-.41-7.31,1.4,1.4,0,0,1,2.76.51c-.08.47-1.87,11.2,9,15.13a1.41,1.41,0,0,1-.47,2.73Z" fill="url(#linear-gradient-4)"/>
  </g>
</svg>
