<svg id="Layer_1" data-name="Layer 1" xmlns="http://www.w3.org/2000/svg" xmlns:xlink="http://www.w3.org/1999/xlink" viewBox="0 0 107.26 91.21"><defs><linearGradient id="linear-gradient" x1="15.92" y1="45.6" x2="97.13" y2="45.6" gradientUnits="userSpaceOnUse"><stop offset="0" stop-color="#55b6ff"/><stop offset="0.25" stop-color="#44c5fc"/><stop offset="0.73" stop-color="#16ecf3"/><stop offset="0.95" stop-color="#00ffef"/></linearGradient></defs><title>Freedom_Ancillary_Icons-syringe</title><g id="surface1"><path d="M82.17,5.87A3,3,0,0,0,78,10.09l3.13,3.08-3,3L72.2,10.35a3.07,3.07,0,0,0-4.22,0,3,3,0,0,0,0,4.22h0l2,2L64.61,22,58.9,27.74,41.76,44.87,36.08,50.6l-6.19,6.19a1.12,1.12,0,0,0,0,1.57l3,3L29.1,65.22a1.13,1.13,0,0,0,0,1.58l2.35,2.34L16.17,84.4A1.11,1.11,0,0,0,16.34,86a1.13,1.13,0,0,0,1.32.06l.05-.06L33,70.73l2.34,2.35a1.13,1.13,0,0,0,1.58,0l3.82-3.82,3,3a1.13,1.13,0,0,0,1.58,0L85.49,32.15l2,2A3,3,0,0,0,91.74,30l-5.85-5.84,3-3L92,24.2A3,3,0,0,0,96.26,20Zm-46,64.82L31.44,66l3-3,4.69,4.69Zm8.43-.8-3-3-6.28-6.3-3-3L36.82,53l3.67,3.66a1.11,1.11,0,0,0,1.63-1.48L42,55.06l-3.65-3.67,4.13-4.13,3.67,3.66a1.11,1.11,0,0,0,1.57-.16,1.13,1.13,0,0,0,.06-1.33l0,0L44.1,45.71l4.14-4.13,3.69,3.63a1.12,1.12,0,0,0,1.55.31,1.13,1.13,0,0,0,.3-1.56,1.26,1.26,0,0,0-.22-.24l-.06-.06L49.84,40,54,35.83l3.66,3.67a1.12,1.12,0,0,0,1.55-1.58l-3.65-3.67,4.14-4.13,3.66,3.67a1.12,1.12,0,1,0,1.86-1.25,1.31,1.31,0,0,0-.22-.25l-3.72-3.71,4.13-4.13,3.69,3.62a1.12,1.12,0,1,0,1.86-1.24,1.09,1.09,0,0,0-.23-.25l0,0L67,22.86l4.61-4.61L83.92,30.59ZM90.17,31.54a.74.74,0,0,1,0,1.05.76.76,0,0,1-1,0L86.3,29.77,72.37,15.85,69.56,13A.75.75,0,0,1,70.62,12L83.53,24.89Zm-5.85-9-4.7-4.69,3-3,4.7,4.7Zm10.37.09a.74.74,0,0,1-1,0L79.53,8.52a.75.75,0,0,1,0-1.06.74.74,0,0,1,1.06,0l14.1,14.1a.74.74,0,0,1,0,1.05Z" fill="url(#linear-gradient)"/></g></svg>