<svg id="Layer_1" data-name="Layer 1" xmlns="http://www.w3.org/2000/svg" xmlns:xlink="http://www.w3.org/1999/xlink" viewBox="0 0 107.26 91.21">
  <defs>
    <linearGradient id="linear-gradient" x1="25.39" y1="50.94" x2="79.64" y2="50.94" gradientUnits="userSpaceOnUse">
      <stop offset="0" stop-color="#55b6ff"/>
      <stop offset="0.25" stop-color="#44c5fc"/>
      <stop offset="0.73" stop-color="#16ecf3"/>
      <stop offset="0.95" stop-color="#00ffef"/>
    </linearGradient>
    <linearGradient id="linear-gradient-2" x1="33.5" y1="47.9" x2="39.69" y2="47.9" xlink:href="#linear-gradient"/>
    <linearGradient id="linear-gradient-3" x1="72.18" y1="16.5" x2="74.99" y2="16.5" xlink:href="#linear-gradient"/>
    <linearGradient id="linear-gradient-4" x1="79.01" y1="19.87" x2="87.15" y2="19.87" xlink:href="#linear-gradient"/>
    <linearGradient id="linear-gradient-5" x1="81.43" y1="30.4" x2="92.38" y2="30.4" xlink:href="#linear-gradient"/>
    <linearGradient id="linear-gradient-6" x1="31.51" y1="33.25" x2="41.65" y2="33.25" xlink:href="#linear-gradient"/>
  </defs>
  <title>Freedom_Ancillary_Icons</title>
  <g>
    <path d="M40.22,80.11a4.07,4.07,0,0,1-1-.14c-4.1-1.1-6.43-8.42-6.82-10.33a53.81,53.81,0,0,1-.87-8.4,57.71,57.71,0,0,0-.62-6.94,39.13,39.13,0,0,0-2.48-7.64c-2.09-5.21-4.24-10.59-2.17-16.13a13.69,13.69,0,0,1,9.35-8.29c5-1.35,8.81.49,12.52,2.28,3.94,1.89,7.58,1,11.43,0,3.43-.86,7-1.75,11-.74a11.61,11.61,0,0,1,8,6.94,16.86,16.86,0,0,1,.6,10.51,37.22,37.22,0,0,1-1.82,5.08,33.7,33.7,0,0,0-1.71,4.73A30.69,30.69,0,0,0,75,59.2c0,.51,0,1,0,1.54,0,4.9.11,15.09-6.19,18a4.1,4.1,0,0,1-3.65,0c-2.8-1.38-4-5.88-5-10-.1-.43-.18-.8-.26-1.1-.82-3.22-3.13-8.62-6.63-8.41h0a5.31,5.31,0,0,0-2.45.9c-1.9,1.22-3.45,3.74-4.25,6.93a19.2,19.2,0,0,0-.41,3.48c-.16,2.56-.34,5.46-2.32,7.66A4.84,4.84,0,0,1,40.22,80.11ZM39,24.58a10.07,10.07,0,0,0-2.65.37,10.92,10.92,0,0,0-7.46,6.56C27.17,36,29,40.69,31,45.62a42.41,42.41,0,0,1,2.65,8.21,62.69,62.69,0,0,1,.65,7.27,51.47,51.47,0,0,0,.81,8A21,21,0,0,0,37,74c1,1.87,2.08,3.07,3,3.31.2.06.84.23,1.85-.91,1.33-1.48,1.46-3.66,1.61-6a21.34,21.34,0,0,1,.49-4c.57-2.28,2-6.43,5.46-8.61a8.08,8.08,0,0,1,3.8-1.34h.38c4.74,0,7.81,5.38,9.13,10.52.08.32.17.72.27,1.17.5,2.15,1.65,7.19,3.49,8.1a1.33,1.33,0,0,0,1.24-.07c4.65-2.13,4.58-11.09,4.55-15.4,0-.5,0-1,0-1.52a33.83,33.83,0,0,1,.66-8.86,36.06,36.06,0,0,1,1.84-5.12,36.38,36.38,0,0,0,1.7-4.69,14.15,14.15,0,0,0-.47-8.73,8.8,8.8,0,0,0-6.11-5.31c-3.28-.84-6.34-.07-9.59.74-4.16,1-8.46,2.11-13.32-.23C43.89,25.61,41.52,24.58,39,24.58Z" fill="url(#linear-gradient)"/>
    <path d="M38.29,53.49a1.4,1.4,0,0,1-1.4-1.37,12.1,12.1,0,0,0-3-7.44,1.4,1.4,0,1,1,2-2,14.89,14.89,0,0,1,3.78,9.33,1.4,1.4,0,0,1-1.36,1.43Z" fill="url(#linear-gradient-2)"/>
    <path d="M73.59,21.89a1.41,1.41,0,0,1-1.41-1.4v-8a1.41,1.41,0,1,1,2.81,0v8A1.4,1.4,0,0,1,73.59,21.89Z" fill="url(#linear-gradient-3)"/>
    <path d="M80.41,23.91a1.36,1.36,0,0,1-1-.41,1.39,1.39,0,0,1,0-2l5.33-5.29a1.4,1.4,0,0,1,2,2L81.4,23.51A1.39,1.39,0,0,1,80.41,23.91Z" fill="url(#linear-gradient-4)"/>
    <path d="M91,32.05h-.09l-8.14-.51a1.4,1.4,0,1,1,.17-2.8l8.14.51a1.4,1.4,0,0,1-.08,2.8Z" fill="url(#linear-gradient-5)"/>
    <path d="M32.92,37.4h-.21a1.4,1.4,0,0,1-1.18-1.6,8.91,8.91,0,0,1,3.27-5.5,7.19,7.19,0,0,1,5.72-1A1.41,1.41,0,1,1,40,32a4.44,4.44,0,0,0-3.57.55,6.19,6.19,0,0,0-2.11,3.63A1.4,1.4,0,0,1,32.92,37.4Z" fill="url(#linear-gradient-6)"/>
  </g>
</svg>
