<svg id="Layer_1" data-name="Layer 1" xmlns="http://www.w3.org/2000/svg" xmlns:xlink="http://www.w3.org/1999/xlink" viewBox="0 0 107.26 91.21">
  <defs>
    <linearGradient id="linear-gradient" x1="22.36" y1="45.61" x2="84.9" y2="45.61" gradientUnits="userSpaceOnUse">
      <stop offset="0" stop-color="#55b6ff"/>
      <stop offset="0.25" stop-color="#44c5fc"/>
      <stop offset="0.73" stop-color="#16ecf3"/>
      <stop offset="0.95" stop-color="#00ffef"/>
    </linearGradient>
    <linearGradient id="linear-gradient-2" x1="51.97" y1="50.28" x2="55.29" y2="50.28" xlink:href="#linear-gradient"/>
    <linearGradient id="linear-gradient-3" x1="40.39" y1="50.28" x2="66.87" y2="50.28" xlink:href="#linear-gradient"/>
  </defs>
  <title>Freedom_Ancillary_Icons</title>
  <g>
    <path d="M77.24,80H30.42a7.68,7.68,0,0,1-7.65-7.56l-.41-32.31a7.67,7.67,0,0,1,2.43-5.69L47.52,13.24a7.64,7.64,0,0,1,10.26-.17l24.5,21.4a7.65,7.65,0,0,1,2.62,5.76V72.39A7.66,7.66,0,0,1,77.24,80ZM52.75,14a4.88,4.88,0,0,0-3.32,1.31L26.7,36.53h0a4.9,4.9,0,0,0-1.54,3.61l.41,32.31a4.87,4.87,0,0,0,4.85,4.79H77.24a4.85,4.85,0,0,0,4.85-4.85V40.23a4.82,4.82,0,0,0-1.66-3.65L55.94,15.18A4.86,4.86,0,0,0,52.75,14Zm-27,21.52h0Z" fill="url(#linear-gradient)"/>
    <path d="M53.63,63.52A1.65,1.65,0,0,1,52,61.87V38.7a1.66,1.66,0,1,1,3.32,0V61.87A1.66,1.66,0,0,1,53.63,63.52Z" fill="url(#linear-gradient-2)"/>
    <path d="M65.21,51.94H42a1.66,1.66,0,0,1,0-3.32H65.21a1.66,1.66,0,1,1,0,3.32Z" fill="url(#linear-gradient-3)"/>
  </g>
</svg>
