<svg xmlns="http://www.w3.org/2000/svg" viewBox="0 0 339.36 127.16">
  <title>Logo_For_Website_Freedom_Black</title>
  <g id="Layer_2" data-name="Layer 2">
    <g>
      <path d="M61.46,22.78l2.22-18.4A.46.46,0,0,0,63,3.92C35.58,19,8.2,7.32,3.31,5a.47.47,0,0,0-.66.49L4.81,22.68a.48.48,0,0,0,.24.36,55.15,55.15,0,0,0,6.22,2.84.47.47,0,0,1,.3.38l1.62,12.53a.47.47,0,0,1-.62.51c-1.76-.6-3.08-1.13-3.84-1.46a.47.47,0,0,0-.65.49L9.65,50.81a.46.46,0,0,0,.25.36,39.48,39.48,0,0,0,4.92,2.2.48.48,0,0,1,.3.38L19.93,96.5a.47.47,0,0,0,.31.38c.83.29,4.49,1.06,6.41-.07a.45.45,0,0,0,.21-.42L24.35,56.22a.47.47,0,0,1,.52-.49C39.1,57.33,51.47,52,53.32,51.2a.44.44,0,0,0,.27-.36l1.6-13.33a.47.47,0,0,0-.69-.46C43.78,42.87,32.65,43.21,24,42a.47.47,0,0,1-.4-.44l-.64-12a.47.47,0,0,1,.53-.49c19.39,2.8,35.67-4.87,37.75-5.9A.48.48,0,0,0,61.46,22.78Z"/>
      <path d="M11.41,40a.47.47,0,0,1,.65-.49c.76.32,2.08.86,3.84,1.45a.47.47,0,0,0,.62-.5L14.9,27.88a.48.48,0,0,0-.3-.37c-1-.39-2-.81-3-1.27a0,0,0,0,1,0,0l1.62,12.53a.47.47,0,0,1-.62.51c-1.76-.6-3.08-1.13-3.84-1.46a.47.47,0,0,0-.65.49L9.65,50.81a.46.46,0,0,0,.25.36c1.06.56,2.12,1.06,3.18,1.51a.51.51,0,0,1-.1-.24Z" fill="#1e1e1e"/>
      <path d="M18.15,55c-1-.38-2-.8-3-1.27v0L19.93,96.5a.47.47,0,0,0,.31.38,15.29,15.29,0,0,0,3.63.53l-5.42-42A.48.48,0,0,0,18.15,55Z" fill="#1e1e1e"/>
      <path d="M11.27,25.88c-.94-.36-1.89-.76-2.84-1.19,1,.56,2.09,1.07,3.13,1.55A.47.47,0,0,0,11.27,25.88Z" fill="#022335"/>
      <path d="M14.82,53.37c-.58-.21-1.16-.45-1.74-.69a.44.44,0,0,0,.15.12c.62.33,1.25.64,1.88.93A.45.45,0,0,0,14.82,53.37Z" fill="#022335"/>
      <path d="M8.14,24.31,6,7.12a.47.47,0,0,1,.66-.49C11.35,8.87,37,19.78,63.35,7.07l.33-2.69A.46.46,0,0,0,63,3.92C35.58,19,8.2,7.32,3.31,5a.47.47,0,0,0-.66.49L4.81,22.68a.48.48,0,0,0,.24.36c1.13.6,2.25,1.15,3.38,1.65l0,0A.46.46,0,0,1,8.14,24.31Z" fill="#1e1e1e"/>
      <path d="M24.1,43.2c7.89,1.11,21,1.34,30.78-3.06l.31-2.63a.46.46,0,0,0-.69-.46c-10.89,6.19-22.66,5.6-30.85,4.85l0,.86A.48.48,0,0,0,24.1,43.2Z" fill="#1e1e1e"/>
      <path d="M70.71,55.43a1.91,1.91,0,0,0,3.36,1,15.68,15.68,0,0,1,2.26-2.21,10.59,10.59,0,0,1,6.79-2.28,9.57,9.57,0,0,1,3.73.66A1.89,1.89,0,0,1,88,54.48l-.59,6.8s0,0,0,.06a2.07,2.07,0,0,1-.63,1.08,1.71,1.71,0,0,1-1.11.33,13.38,13.38,0,0,1-1.93-.22,14.61,14.61,0,0,0-2.51-.22,9.22,9.22,0,0,0-3.18.52,7.89,7.89,0,0,0-2.5,1.51,10.24,10.24,0,0,0-2,2.37l-1.34,2.21a1.57,1.57,0,0,0-.23.75L70.56,97.11a.29.29,0,0,1-.29.3H63.62a.29.29,0,0,1-.29-.29L61.69,61.28a2.19,2.19,0,0,0,0-.27c-.92-4.39-2.33-5.46-4.88-6.82h0a.29.29,0,0,1,.12-.54l10.54-.91h.2a3.42,3.42,0,0,1,2.21.59,3.52,3.52,0,0,1,.87,2.11Z"/>
      <path d="M98.59,76.42a20.9,20.9,0,0,0,1.22,5.94,12.27,12.27,0,0,0,2.52,4.14,10,10,0,0,0,3.73,2.44,13.39,13.39,0,0,0,4.76.8,14.64,14.64,0,0,0,4.51-.61,20.86,20.86,0,0,0,3.31-1.34c.94-.5,1.77-1,2.48-1.35a4.12,4.12,0,0,1,2.07-.61,2.21,2.21,0,0,1,2,1l3.09,3.92a17.88,17.88,0,0,1-4,3.5,22.91,22.91,0,0,1-4.64,2.27,25.57,25.57,0,0,1-4.92,1.19,35.61,35.61,0,0,1-4.85.35,23.88,23.88,0,0,1-8.67-1.54,19.45,19.45,0,0,1-7-4.58,21.35,21.35,0,0,1-4.65-7.49,28.78,28.78,0,0,1-1.7-10.34,24.71,24.71,0,0,1,1.48-8.6,20.67,20.67,0,0,1,4.24-7,20.21,20.21,0,0,1,6.75-4.72,22.28,22.28,0,0,1,9-1.74,21.88,21.88,0,0,1,7.8,1.35,17,17,0,0,1,6.14,3.94,18.2,18.2,0,0,1,4,6.36,23.48,23.48,0,0,1,1.46,8.59,7,7,0,0,1-.52,3.29,2.16,2.16,0,0,1-2,.85Zm20.51-6.49a13,13,0,0,0-.59-3.94,9.42,9.42,0,0,0-1.76-3.24,8.26,8.26,0,0,0-3-2.2,10.15,10.15,0,0,0-4.2-.81,10,10,0,0,0-7.34,2.66,13,13,0,0,0-3.41,7.53Z"/>
      <path d="M143,76.42a21.25,21.25,0,0,0,1.22,5.94,12.13,12.13,0,0,0,2.53,4.14,9.84,9.84,0,0,0,3.72,2.44,13.45,13.45,0,0,0,4.77.8,14.62,14.62,0,0,0,4.5-.61A20.48,20.48,0,0,0,163,87.79c.94-.5,1.77-1,2.48-1.35a4.12,4.12,0,0,1,2.07-.61,2.21,2.21,0,0,1,2,1l3.1,3.92a17.92,17.92,0,0,1-4,3.5A22.91,22.91,0,0,1,164,96.52a25.57,25.57,0,0,1-4.92,1.19,35.5,35.5,0,0,1-4.85.35,23.88,23.88,0,0,1-8.67-1.54,19.32,19.32,0,0,1-7-4.58A21.23,21.23,0,0,1,134,84.45a29,29,0,0,1-1.7-10.34,24.71,24.71,0,0,1,1.48-8.6,20.69,20.69,0,0,1,4.25-7,20.07,20.07,0,0,1,6.74-4.72,22.3,22.3,0,0,1,9-1.74,21.87,21.87,0,0,1,7.79,1.35,16.93,16.93,0,0,1,6.14,3.94,18.36,18.36,0,0,1,4,6.36,23.69,23.69,0,0,1,1.46,8.59,6.92,6.92,0,0,1-.53,3.29,2.15,2.15,0,0,1-2,.85Zm20.51-6.49a13,13,0,0,0-.59-3.94,9.42,9.42,0,0,0-1.76-3.24,8.31,8.31,0,0,0-3-2.2,10.23,10.23,0,0,0-4.21-.81,10,10,0,0,0-7.33,2.66,13,13,0,0,0-3.42,7.53Z"/>
      <path d="M245.79,52a24.49,24.49,0,0,1,9,1.61,19.84,19.84,0,0,1,7,4.57,20.16,20.16,0,0,1,4.46,7.23,29.86,29.86,0,0,1,0,19.11,20.51,20.51,0,0,1-4.46,7.27,19.42,19.42,0,0,1-7,4.62,24.49,24.49,0,0,1-9,1.61,24.77,24.77,0,0,1-9.1-1.61,19.37,19.37,0,0,1-7-4.62,20.72,20.72,0,0,1-4.49-7.27A27.23,27.23,0,0,1,223.63,75a27.1,27.1,0,0,1,1.59-9.53,20.37,20.37,0,0,1,4.49-7.23,19.79,19.79,0,0,1,7-4.57A24.77,24.77,0,0,1,245.79,52Zm0,37.75q5.58,0,8.26-3.75t2.67-11q0-7.23-2.67-11t-8.26-3.79q-5.65,0-8.38,3.81t-2.72,11q0,7.19,2.72,11T245.79,89.79Z"/>
      <path d="M274.08,97.41,273,52.73h6.58a2.65,2.65,0,0,1,2.74,2L283,58a24,24,0,0,1,2.46-2.39,15.26,15.26,0,0,1,2.74-1.87,14.28,14.28,0,0,1,3.13-1.24,13.79,13.79,0,0,1,3.68-.46A10.46,10.46,0,0,1,302,54.32a13.83,13.83,0,0,1,4.07,6.08,13.82,13.82,0,0,1,2.61-3.81A14.39,14.39,0,0,1,312.12,54a15.87,15.87,0,0,1,4-1.48,19.17,19.17,0,0,1,4.25-.48,17.88,17.88,0,0,1,6.57,1.13,12.71,12.71,0,0,1,4.84,3.31,14.62,14.62,0,0,1,3,5.31,23.24,23.24,0,0,1,1,7.19l-1.48,28.43h-8.21L325,69c0-2.85-.63-5-1.87-6.43a6.9,6.9,0,0,0-5.49-2.15,8.34,8.34,0,0,0-3.07.56,7.4,7.4,0,0,0-2.48,1.64,7.52,7.52,0,0,0-1.68,2.67,10.61,10.61,0,0,0-.61,3.71V97.41H299V69c0-3-.61-5.17-1.81-6.54a6.71,6.71,0,0,0-5.29-2,8.69,8.69,0,0,0-4.38,1.15,14.48,14.48,0,0,0-3.76,3.16l-1.42,32.7Z"/>
      <path d="M227,24.69c-8.64,4.81-19.86,1.71-19.86,1.71v6.33h0V56.26a16.57,16.57,0,0,0-4.74-3.18A15.89,15.89,0,0,0,196,51.91a17.53,17.53,0,0,0-7.92,1.76,18.11,18.11,0,0,0-6.05,4.9,22.39,22.39,0,0,0-3.88,7.4,30.46,30.46,0,0,0-1.35,9.23A36.16,36.16,0,0,0,178,85a21.17,21.17,0,0,0,3.4,7.16,14.51,14.51,0,0,0,11.95,5.94,16.71,16.71,0,0,0,8.16-1.92,22.39,22.39,0,0,0,6.21-5l.91,4.31a2.54,2.54,0,0,0,2.7,2h6.58V34.46c4,.49,9.09-1.38,9.09-1.38ZM207.12,84.17a16.9,16.9,0,0,1-4.44,4,11,11,0,0,1-5.7,1.4,9.1,9.1,0,0,1-3.79-.77,6.87,6.87,0,0,1-2.88-2.48,13,13,0,0,1-1.8-4.44,29.91,29.91,0,0,1-.63-6.64,26.78,26.78,0,0,1,.74-6.73,13.26,13.26,0,0,1,2.13-4.7A8.93,8.93,0,0,1,194.1,61a10.28,10.28,0,0,1,4.4-.92,11.75,11.75,0,0,1,4.64.92,10.62,10.62,0,0,1,4,3.13Z"/>
      <g>
        <path d="M67.52,52.74l-10.63.91a.29.29,0,0,0-.11.55c2.09,1.11,3.42,2,4.34,4.77a13.44,13.44,0,0,1,.63,3.55l1.58,34.6a.29.29,0,0,0,.29.29h1.69a.29.29,0,0,1-.29-.29l-1.65-36c-.92-4.5-2.34-5.58-4.91-6.94a.29.29,0,0,1,.11-.55l9.89-.85a8,8,0,0,0-.91-.07Z" fill="#1e1e1e"/>
        <path d="M71.52,53.32a3.48,3.48,0,0,0-2.29-.59h0l-.74.06a2.55,2.55,0,0,1,1.38.52,3.52,3.52,0,0,1,.87,2.11l.54,4.17a.29.29,0,0,0,.54.1c.3-.54.62-1.06,1-1.55l-.36-2.72A3.4,3.4,0,0,0,71.52,53.32Z" fill="#1e1e1e"/>
      </g>
      <g>
        <path d="M121.12,86.44c-.71.4-1.54.85-2.48,1.35a20.86,20.86,0,0,1-3.31,1.34,14,14,0,0,1-3.55.59l.73,0a14.73,14.73,0,0,0,4.51-.61,21.26,21.26,0,0,0,3.31-1.34c.94-.5,1.77-1,2.48-1.35A4.7,4.7,0,0,1,124,86a2.8,2.8,0,0,0-.8-.12A4.12,4.12,0,0,0,121.12,86.44Z" fill="#010549"/>
        <path d="M95.92,91.94a21.37,21.37,0,0,1-4.66-7.49,29,29,0,0,1-1.7-10.34A25,25,0,0,1,91,65.51a20.85,20.85,0,0,1,4.25-7A20,20,0,0,1,102,53.78a21.63,21.63,0,0,1,8.18-1.72l-.88,0a22.28,22.28,0,0,0-9,1.74A20.21,20.21,0,0,0,93.6,58.5a20.67,20.67,0,0,0-4.24,7,24.71,24.71,0,0,0-1.48,8.6,28.78,28.78,0,0,0,1.7,10.34,21.35,21.35,0,0,0,4.65,7.49,19.45,19.45,0,0,0,7,4.58,23.88,23.88,0,0,0,8.67,1.54l.89,0a23.63,23.63,0,0,1-7.87-1.52A19.36,19.36,0,0,1,95.92,91.94Z" fill="#1e1e1e"/>
        <path d="M102.22,62.4a13,13,0,0,0-3.41,7.53h1.68a13,13,0,0,1,3.42-7.53,9.6,9.6,0,0,1,6.42-2.62c-.25,0-.5,0-.77,0A10,10,0,0,0,102.22,62.4Z" fill="#1e1e1e"/>
        <path d="M104,86.5a12.13,12.13,0,0,1-2.53-4.14,21.25,21.25,0,0,1-1.22-5.94H98.59a20.9,20.9,0,0,0,1.22,5.94,12.27,12.27,0,0,0,2.52,4.14,10,10,0,0,0,3.73,2.44,13.39,13.39,0,0,0,4.76.8l1,0a13.3,13.3,0,0,1-4-.78A9.84,9.84,0,0,1,104,86.5Z" fill="#1e1e1e"/>
      </g>
      <g>
        <path d="M165.5,86.44c-.71.4-1.54.85-2.48,1.35a20.48,20.48,0,0,1-3.31,1.34,14,14,0,0,1-3.55.59l.73,0a14.69,14.69,0,0,0,4.51-.61,21.26,21.26,0,0,0,3.31-1.34c.94-.5,1.77-1,2.48-1.35a4.76,4.76,0,0,1,1.19-.49,2.93,2.93,0,0,0-.81-.12A4.12,4.12,0,0,0,165.5,86.44Z" fill="#010549"/>
        <path d="M140.3,91.94a21.52,21.52,0,0,1-4.66-7.49A29,29,0,0,1,134,74.11a24.71,24.71,0,0,1,1.48-8.6,20.67,20.67,0,0,1,4.24-7,20,20,0,0,1,6.75-4.72,21.64,21.64,0,0,1,8.19-1.72l-.88,0a22.3,22.3,0,0,0-9,1.74A20.07,20.07,0,0,0,138,58.5a20.69,20.69,0,0,0-4.25,7,24.71,24.71,0,0,0-1.48,8.6A29,29,0,0,0,134,84.45a21.23,21.23,0,0,0,4.66,7.49,19.32,19.32,0,0,0,7,4.58,23.88,23.88,0,0,0,8.67,1.54l.9,0a23.64,23.64,0,0,1-7.88-1.52A19.45,19.45,0,0,1,140.3,91.94Z" fill="#1e1e1e"/>
        <path d="M146.61,62.4a13,13,0,0,0-3.42,7.53h1.68a13.09,13.09,0,0,1,3.42-7.53,9.6,9.6,0,0,1,6.43-2.62c-.26,0-.51,0-.78,0A10,10,0,0,0,146.61,62.4Z" fill="#1e1e1e"/>
        <path d="M148.4,86.5a12.11,12.11,0,0,1-2.52-4.14,20.9,20.9,0,0,1-1.22-5.94H143a21.25,21.25,0,0,0,1.22,5.94,12.13,12.13,0,0,0,2.53,4.14,9.84,9.84,0,0,0,3.72,2.44,13.45,13.45,0,0,0,4.77.8l.95,0a13.42,13.42,0,0,1-4-.78A10,10,0,0,1,148.4,86.5Z" fill="#1e1e1e"/>
      </g>
      <g>
        <path d="M180.22,87.2a36,36,0,0,1-1.2-9.75,30.42,30.42,0,0,1,1.35-9.23,22.29,22.29,0,0,1,3.88-7.4,18,18,0,0,1,6.05-4.9,17.4,17.4,0,0,1,7.92-1.77,15.8,15.8,0,0,1,6.4,1.18,7.69,7.69,0,0,1,3.24,2.16V34h0V27.63S218.76,31.24,227,28V24.69c-8.64,4.81-19.86,1.71-19.86,1.71v6.33h0V56.26a16.57,16.57,0,0,0-4.74-3.18A15.89,15.89,0,0,0,196,51.91a17.53,17.53,0,0,0-7.92,1.76,18.11,18.11,0,0,0-6.05,4.9,22.39,22.39,0,0,0-3.88,7.4,30.46,30.46,0,0,0-1.35,9.23A36.16,36.16,0,0,0,178,85a21.17,21.17,0,0,0,3.4,7.16A15.87,15.87,0,0,0,184,94.85l-.39-.49A21.16,21.16,0,0,1,180.22,87.2Z" fill="#1e1e1e"/>
        <path d="M190.12,77.45a27.2,27.2,0,0,1,.74-6.73A13.36,13.36,0,0,1,193,66a8.76,8.76,0,0,1,3.35-2.76,10.28,10.28,0,0,1,4.4-.92,11.79,11.79,0,0,1,4.64.92,8.64,8.64,0,0,1,1.73,1v-.11a10.62,10.62,0,0,0-4-3.13,11.75,11.75,0,0,0-4.64-.92,10.28,10.28,0,0,0-4.4.92,8.93,8.93,0,0,0-3.35,2.76,13.26,13.26,0,0,0-2.13,4.7,26.78,26.78,0,0,0-.74,6.73,29.91,29.91,0,0,0,.63,6.64,13,13,0,0,0,1.8,4.44,7.29,7.29,0,0,0,2.16,2.1,13.16,13.16,0,0,1-1.71-4.29A29.27,29.27,0,0,1,190.12,77.45Z" fill="#1e1e1e"/>
      </g>
      <g>
        <path d="M232.18,91.83a20.72,20.72,0,0,1-4.49-7.27A27.23,27.23,0,0,1,226.1,75a27.1,27.1,0,0,1,1.59-9.53,20.37,20.37,0,0,1,4.49-7.23,19.74,19.74,0,0,1,7-4.57A24,24,0,0,1,247,52.06l-1.24,0a24.77,24.77,0,0,0-9.1,1.61,19.79,19.79,0,0,0-7,4.57,20.37,20.37,0,0,0-4.49,7.23A27.1,27.1,0,0,0,223.63,75a27.23,27.23,0,0,0,1.59,9.58,20.72,20.72,0,0,0,4.49,7.27,19.37,19.37,0,0,0,7,4.62,24.77,24.77,0,0,0,9.1,1.61L247,98a24,24,0,0,1-7.86-1.59A19.32,19.32,0,0,1,232.18,91.83Z" fill="#1e1e1e"/>
        <path d="M239.89,86q-2.73-3.76-2.73-11t2.73-11A9.19,9.19,0,0,1,247,60.32c-.39,0-.8,0-1.23,0q-5.65,0-8.38,3.81t-2.72,11q0,7.19,2.72,11t8.38,3.77a12.07,12.07,0,0,0,1.23-.06A9.18,9.18,0,0,1,239.89,86Z" fill="#1e1e1e"/>
      </g>
      <g>
        <polygon points="273.02 52.73 274.08 97.41 276.38 97.41 275.32 52.73 273.02 52.73" fill="#1e1e1e"/>
        <path d="M304.3,54.32A10.44,10.44,0,0,0,297.36,52c-.41,0-.8,0-1.18,0A10.05,10.05,0,0,1,302,54.32a13.83,13.83,0,0,1,4.07,6.08,14,14,0,0,1,1.31-2.24A13.24,13.24,0,0,0,304.3,54.32Z" fill="#1e1e1e"/>
        <path d="M281.9,52.73h-2.3a2.65,2.65,0,0,1,2.74,2L283,58a26,26,0,0,1,1.9-1.89l-.3-1.42A2.64,2.64,0,0,0,281.9,52.73Z" fill="#1e1e1e"/>
      </g>
    </g>
    <g>
      <path d="M76.26,125.36h-2a.88.88,0,0,1-.55-.16,1.05,1.05,0,0,1-.32-.4l-.67-2h-4.3l-.67,2a1,1,0,0,1-.31.39.82.82,0,0,1-.55.17h-2L69.19,114h2.69ZM72.09,121l-1-3.1c-.08-.19-.16-.43-.25-.69s-.18-.56-.27-.87a8.47,8.47,0,0,1-.25.88c-.08.27-.17.5-.24.7L69,121Z"/>
      <path d="M90.77,114v11.32H89.4a1.29,1.29,0,0,1-.51-.09,1.34,1.34,0,0,1-.4-.34l-5.34-6.76c0,.21,0,.4,0,.59s0,.37,0,.53v6.07H80.88V114h1.67a.65.65,0,0,1,.21.06.57.57,0,0,1,.18.12,2.08,2.08,0,0,1,.2.21l5.38,6.8c0-.21,0-.42,0-.63s0-.4,0-.58v-6Z"/>
      <path d="M104.33,122.43a.39.39,0,0,1,.18,0,.47.47,0,0,1,.18.12l1,1.09A4.26,4.26,0,0,1,104,125a5.9,5.9,0,0,1-2.44.46,5.84,5.84,0,0,1-2.31-.44,5,5,0,0,1-1.73-1.21,5.4,5.4,0,0,1-1.1-1.84,6.85,6.85,0,0,1-.38-2.3,6.27,6.27,0,0,1,.42-2.33,5.19,5.19,0,0,1,2.94-3,6.06,6.06,0,0,1,2.29-.43,6.26,6.26,0,0,1,2.26.43,5,5,0,0,1,1.63,1.08l-.89,1.19a1,1,0,0,1-.2.2.52.52,0,0,1-.33.09.58.58,0,0,1-.26-.06l-.26-.15-.31-.2a2.14,2.14,0,0,0-.4-.19,3.07,3.07,0,0,0-.53-.15,3.14,3.14,0,0,0-.72-.07,2.84,2.84,0,0,0-1.19.24,2.52,2.52,0,0,0-.94.71,3.21,3.21,0,0,0-.6,1.13,4.85,4.85,0,0,0-.22,1.54,4.57,4.57,0,0,0,.24,1.54,3.49,3.49,0,0,0,.64,1.14,2.76,2.76,0,0,0,1,.71,2.83,2.83,0,0,0,1.16.24,4.5,4.5,0,0,0,.66,0,3.15,3.15,0,0,0,.55-.11,2.62,2.62,0,0,0,.48-.22,3.3,3.3,0,0,0,.46-.35,1.37,1.37,0,0,1,.2-.13A.59.59,0,0,1,104.33,122.43Z"/>
      <path d="M113.26,125.36h-2.65V114h2.65Z"/>
      <path d="M126,123.26v2.1h-6.82V114h2.62v9.22Z"/>
      <path d="M137.89,123.26v2.1h-6.82V114h2.63v9.22Z"/>
      <path d="M153.12,125.36h-2a.86.86,0,0,1-.55-.16,1,1,0,0,1-.32-.4l-.67-2h-4.3l-.67,2a1,1,0,0,1-.31.39.84.84,0,0,1-.55.17h-2.05L146.05,114h2.69ZM148.94,121l-1-3.1c-.08-.19-.16-.43-.25-.69s-.18-.56-.27-.87c-.08.32-.16.61-.25.88s-.17.5-.24.7l-1,3.08Z"/>
      <path d="M167,125.36h-2.38a1,1,0,0,1-.95-.49l-1.88-3.29a1.09,1.09,0,0,0-.29-.31,1,1,0,0,0-.47-.1h-.67v4.19h-2.63V114h3.69a7.48,7.48,0,0,1,2.09.25,3.86,3.86,0,0,1,1.42.71,2.62,2.62,0,0,1,.79,1.06,3.44,3.44,0,0,1,.25,1.34,4,4,0,0,1-.14,1,3.27,3.27,0,0,1-.44.9,3.35,3.35,0,0,1-.71.75,4,4,0,0,1-1,.53,2.56,2.56,0,0,1,.48.33,2.35,2.35,0,0,1,.41.47Zm-5.58-6a2.69,2.69,0,0,0,.91-.13,1.67,1.67,0,0,0,.62-.38,1.43,1.43,0,0,0,.35-.56,2.28,2.28,0,0,0,.11-.7,1.43,1.43,0,0,0-.49-1.16,2.24,2.24,0,0,0-1.5-.42h-1.06v3.35Z"/>
      <path d="M176.51,121.06v4.3h-2.62v-4.3l-4.11-7h2.32a.81.81,0,0,1,.54.16,1.24,1.24,0,0,1,.33.41l1.6,3.29c.13.26.26.5.37.73s.2.45.28.66c.08-.22.17-.44.27-.67s.22-.46.35-.72l1.59-3.29a2.39,2.39,0,0,1,.13-.21,1.66,1.66,0,0,1,.19-.18.92.92,0,0,1,.24-.13.94.94,0,0,1,.3,0h2.33Z"/>
      <path d="M201.78,114v11.32h-2.64v-4.78h-4.6v4.78h-2.65V114h2.65v4.73h4.6V114Z"/>
      <path d="M210.35,116.06v2.64h3.56v2h-3.56v2.69H215v2H207.7V114H215v2Z"/>
      <path d="M230.5,125.36h-2a.88.88,0,0,1-.55-.16,1.05,1.05,0,0,1-.32-.4l-.66-2h-4.31l-.67,2a1,1,0,0,1-.31.39.82.82,0,0,1-.55.17H219L223.43,114h2.69ZM226.33,121l-1.05-3.1c-.08-.19-.16-.43-.25-.69s-.18-.56-.27-.87a8.47,8.47,0,0,1-.25.88c-.08.27-.17.5-.24.7L223.22,121Z"/>
      <path d="M242,123.26v2.1h-6.83V114h2.63v9.22Z"/>
      <path d="M253.83,116.12h-3.18v9.24H248v-9.24h-3.19V114h9Z"/>
      <path d="M268.78,114v11.32h-2.64v-4.78h-4.61v4.78h-2.64V114h2.64v4.73h4.61V114Z"/>
    </g>
  </g>
</svg>
