<svg xmlns="http://www.w3.org/2000/svg" viewBox="0 0 336.23 188.96">
  <title>Logo_For_Website_Freedom_Black</title>
  <g id="Layer_2" data-name="Layer 2">
    <g>
      <path d="M59.89,80.28l2.23-18.4a.47.47,0,0,0-.7-.46C34,76.48,6.63,64.82,1.75,62.5a.47.47,0,0,0-.67.49L3.24,80.18a.47.47,0,0,0,.25.36,57.15,57.15,0,0,0,6.22,2.84.45.45,0,0,1,.29.37l1.62,12.54a.47.47,0,0,1-.61.5c-1.77-.59-3.08-1.13-3.84-1.45a.46.46,0,0,0-.65.49l1.57,12.48a.48.48,0,0,0,.24.36,40.14,40.14,0,0,0,4.92,2.2.44.44,0,0,1,.3.37L18.37,154a.46.46,0,0,0,.3.38c.84.29,4.5,1.06,6.41-.07a.44.44,0,0,0,.22-.42l-2.51-40.17a.47.47,0,0,1,.52-.49c14.22,1.6,26.59-3.69,28.44-4.53a.44.44,0,0,0,.27-.37L53.63,95a.46.46,0,0,0-.69-.46c-10.73,5.82-21.86,6.16-30.54,4.94a.47.47,0,0,1-.4-.44l-.65-12a.47.47,0,0,1,.54-.49c19.39,2.79,35.66-4.87,37.75-5.9A.47.47,0,0,0,59.89,80.28Z"/>
      <path d="M23.87,65.4v0C16.73,64.19,9.3,61.05,5.36,54.6c-2.95-4.81-3.68-11-.57-15.94,3.62-5.73,10.05-8.37,15.08-12.76C31,16.22,28.52,1.39,28.08,1c3.42,2.74,14.29,17.82,7.1,30.27-2.09,3.62-6.38,5.21-9.38,7.92a20.29,20.29,0,0,0-6.66,11.17C18.13,56,20.79,60.94,23.87,65.4Z" fill="#bd1719"/>
      <path d="M29.05,2.33a3.21,3.21,0,0,0-1-1.28c1.45,3.43.46,8.84-.47,12.3A25.37,25.37,0,0,1,19.87,25.9C13.89,31.12,4.41,34.69,3,43.5A16.83,16.83,0,0,0,6.42,56.15a18,18,0,0,0,5.6,5c-.16-1.23-1.1-2.23-1.44-3.42A16.7,16.7,0,0,1,10.09,53c.11-6.43,3.41-12.12,8.15-16.29,4.22-3.71,9.29-6.76,11.82-12,2.76-5.72,1.71-14.88.69-20.75A2.41,2.41,0,0,1,29.05,2.33Z" fill="#5a1617"/>
      <path d="M9.85,97.45a.46.46,0,0,1,.64-.49c.77.33,2.08.87,3.84,1.46a.47.47,0,0,0,.62-.5L13.33,85.38A.45.45,0,0,0,13,85c-1-.39-2-.81-3-1.28v0l1.62,12.54a.47.47,0,0,1-.61.5c-1.77-.59-3.08-1.13-3.84-1.45a.46.46,0,0,0-.65.49l1.57,12.48a.48.48,0,0,0,.24.36c1.06.56,2.12,1.06,3.19,1.51a.43.43,0,0,1-.1-.24Z" fill="#1e1e1e"/>
      <path d="M16.58,112.5c-1-.38-2-.8-3-1.27h0L18.37,154a.46.46,0,0,0,.3.38,15.05,15.05,0,0,0,3.64.52l-5.43-42A.46.46,0,0,0,16.58,112.5Z" fill="#1e1e1e"/>
      <path d="M9.71,83.38c-1-.36-1.9-.76-2.85-1.19,1,.56,2.09,1.07,3.14,1.54A.47.47,0,0,0,9.71,83.38Z" fill="#022335"/>
      <path d="M13.25,110.87c-.58-.22-1.15-.45-1.73-.69a.53.53,0,0,0,.14.12q.94.49,1.89.93A.46.46,0,0,0,13.25,110.87Z" fill="#022335"/>
      <path d="M28.52,66S18,56.19,25.19,46.37s13.85-7.89,16.3-21c0,0,.7-4.73-1.23-8.41,0,0,12.72,15.51,7.28,32.52C42.05,66.62,28.52,66,28.52,66Z" fill="#bd1719"/>
      <path d="M30.35,51.72c4.49-11.18,11.33-11.08,10.62-24-2.79,10.59-9.06,9.5-15.78,18.68C18,56.19,28.52,66,28.52,66a15.08,15.08,0,0,0,4.41-.67C30.23,62.2,28,57.54,30.35,51.72Z" fill="#5a1617"/>
      <path d="M49.73,27.09a35.09,35.09,0,0,1,1.44,5.38c2.37,5.43,4.66,13.32,2.15,20.07-2.21,5.92-7.42,9.06-11.6,10.67A32.35,32.35,0,0,1,37.81,66S51.4,64.34,55.34,53.74C59.67,42.1,49.73,27.09,49.73,27.09Z" fill="#722628"/>
      <path d="M53.32,52.54c2.51-6.75.22-14.64-2.15-20.07,1.45,7.47,2.06,21.16-9.45,30.74C45.9,61.6,51.11,58.46,53.32,52.54Z" fill="#bd1719"/>
      <path d="M6.57,81.81,4.41,64.61a.47.47,0,0,1,.66-.48c4.72,2.23,30.33,13.15,56.72.44l.33-2.69a.47.47,0,0,0-.7-.46C34,76.48,6.63,64.82,1.75,62.5a.47.47,0,0,0-.67.49L3.24,80.18a.47.47,0,0,0,.25.36c1.12.6,2.25,1.14,3.37,1.65l0,0A.47.47,0,0,1,6.57,81.81Z" fill="#1e1e1e"/>
      <path d="M22.53,100.7c7.89,1.11,21,1.34,30.78-3.06L53.63,95a.46.46,0,0,0-.69-.46c-10.89,6.19-22.66,5.6-30.86,4.85l.05.86A.47.47,0,0,0,22.53,100.7Z" fill="#1e1e1e"/>
      <path d="M69.14,112.93a1.91,1.91,0,0,0,3.36,1,16.7,16.7,0,0,1,2.26-2.2,10.61,10.61,0,0,1,6.79-2.29,9.43,9.43,0,0,1,3.74.67,1.87,1.87,0,0,1,1.12,1.9l-.59,6.81a.13.13,0,0,1,0,.06,2,2,0,0,1-.62,1.08,1.75,1.75,0,0,1-1.11.33,13.48,13.48,0,0,1-1.94-.22,14.41,14.41,0,0,0-2.5-.22,9,9,0,0,0-3.18.52,8,8,0,0,0-2.5,1.5,10.26,10.26,0,0,0-2,2.38l-1.35,2.21a1.73,1.73,0,0,0-.23.75L69,154.61a.29.29,0,0,1-.29.29H62.06a.28.28,0,0,1-.29-.28l-1.65-35.85a1.24,1.24,0,0,0,0-.27c-.92-4.38-2.34-5.45-4.88-6.81h0a.29.29,0,0,1,.11-.55l10.54-.9h.21a3.33,3.33,0,0,1,2.2.59,3.4,3.4,0,0,1,.87,2.11Z"/>
      <path d="M97,133.92a21.33,21.33,0,0,0,1.22,5.94,12.13,12.13,0,0,0,2.53,4.14,9.84,9.84,0,0,0,3.72,2.44,13.49,13.49,0,0,0,4.77.8,14.73,14.73,0,0,0,4.51-.61,20.3,20.3,0,0,0,3.31-1.35c.94-.49,1.77-.94,2.48-1.35a4.23,4.23,0,0,1,2.07-.61,2.24,2.24,0,0,1,2,1l3.09,3.91a17.72,17.72,0,0,1-4,3.51,22.28,22.28,0,0,1-4.63,2.26,24.88,24.88,0,0,1-4.92,1.2,35.64,35.64,0,0,1-4.86.35A23.87,23.87,0,0,1,99.64,154a19.34,19.34,0,0,1-7-4.57A21.46,21.46,0,0,1,88,142a29,29,0,0,1-1.7-10.34,24.91,24.91,0,0,1,1.48-8.6A20.85,20.85,0,0,1,92,116a19.87,19.87,0,0,1,6.75-4.72,22.22,22.22,0,0,1,9-1.74,21.87,21.87,0,0,1,7.79,1.35,16.93,16.93,0,0,1,6.14,3.94,18.17,18.17,0,0,1,4,6.35,23.74,23.74,0,0,1,1.46,8.6,7.11,7.11,0,0,1-.52,3.29,2.17,2.17,0,0,1-2,.85Zm20.51-6.49a12.74,12.74,0,0,0-.59-3.94,9.42,9.42,0,0,0-1.76-3.24,8.22,8.22,0,0,0-3-2.2,10.22,10.22,0,0,0-4.2-.81,10,10,0,0,0-7.34,2.66,13.09,13.09,0,0,0-3.42,7.53Z"/>
      <path d="M141.41,133.92a21,21,0,0,0,1.22,5.94,12.11,12.11,0,0,0,2.52,4.14,10,10,0,0,0,3.72,2.44,13.49,13.49,0,0,0,4.77.8,14.69,14.69,0,0,0,4.51-.61,20.3,20.3,0,0,0,3.31-1.35c.94-.49,1.77-.94,2.48-1.35a4.23,4.23,0,0,1,2.07-.61,2.22,2.22,0,0,1,2,1l3.09,3.91a17.68,17.68,0,0,1-4,3.51,22.35,22.35,0,0,1-4.64,2.26,24.88,24.88,0,0,1-4.92,1.2,35.64,35.64,0,0,1-4.86.35A23.87,23.87,0,0,1,144,154a19.42,19.42,0,0,1-7-4.57,21.61,21.61,0,0,1-4.66-7.49,29,29,0,0,1-1.69-10.34,24.67,24.67,0,0,1,1.48-8.6,20.67,20.67,0,0,1,4.24-7,19.87,19.87,0,0,1,6.75-4.72,22.25,22.25,0,0,1,9-1.74,21.88,21.88,0,0,1,7.8,1.35,16.89,16.89,0,0,1,6.13,3.94,18,18,0,0,1,4,6.35,23.74,23.74,0,0,1,1.46,8.6,7,7,0,0,1-.52,3.29,2.16,2.16,0,0,1-2,.85Zm20.5-6.49a13,13,0,0,0-.58-3.94,9.27,9.27,0,0,0-1.77-3.24,8.14,8.14,0,0,0-3-2.2,10.15,10.15,0,0,0-4.2-.81A10,10,0,0,0,145,119.9a13.09,13.09,0,0,0-3.42,7.53Z"/>
      <path d="M244.23,109.54a24.28,24.28,0,0,1,9,1.61A19.4,19.4,0,0,1,264.69,123a29.86,29.86,0,0,1,0,19.11,20.37,20.37,0,0,1-4.46,7.27,19.51,19.51,0,0,1-7,4.62,24.49,24.49,0,0,1-9,1.61,24.73,24.73,0,0,1-9.1-1.61,19.45,19.45,0,0,1-7-4.62,20.7,20.7,0,0,1-4.48-7.27,29.5,29.5,0,0,1,0-19.11,20.26,20.26,0,0,1,4.48-7.23,19.74,19.74,0,0,1,7-4.57A24.53,24.53,0,0,1,244.23,109.54Zm0,37.75q5.58,0,8.25-3.75t2.68-11q0-7.23-2.68-11t-8.25-3.78q-5.65,0-8.38,3.81t-2.72,11q0,7.19,2.72,11T244.23,147.29Z"/>
      <path d="M272.52,154.91l-1.06-44.68H278a2.64,2.64,0,0,1,2.74,2l.7,3.31a25.1,25.1,0,0,1,2.46-2.39,16.25,16.25,0,0,1,2.74-1.88,15.44,15.44,0,0,1,3.14-1.24,14.16,14.16,0,0,1,3.68-.45,10.44,10.44,0,0,1,6.94,2.28,13.74,13.74,0,0,1,4.07,6.08,13.63,13.63,0,0,1,2.62-3.81,13.94,13.94,0,0,1,3.44-2.59,15.59,15.59,0,0,1,4-1.48,19.1,19.1,0,0,1,4.25-.48,17.75,17.75,0,0,1,6.57,1.13,12.49,12.49,0,0,1,4.83,3.31,14.64,14.64,0,0,1,3,5.31,23.18,23.18,0,0,1,1,7.18l-1.48,28.44H324.5l-1.06-28.44q0-4.26-1.87-6.42a6.85,6.85,0,0,0-5.48-2.15,8.3,8.3,0,0,0-3.07.56,7.19,7.19,0,0,0-4.16,4.31,10.36,10.36,0,0,0-.61,3.7v28.44h-10.8V126.47c0-3-.6-5.16-1.81-6.53a6.68,6.68,0,0,0-5.29-2,8.68,8.68,0,0,0-4.37,1.15,14.52,14.52,0,0,0-3.77,3.16l-1.41,32.7Z"/>
      <path d="M225.41,82.19c-8.64,4.81-19.86,1.71-19.86,1.71v6.32h0v23.53a16.76,16.76,0,0,0-4.75-3.18,15.8,15.8,0,0,0-6.4-1.17,17.4,17.4,0,0,0-7.92,1.76,18.14,18.14,0,0,0-6.06,4.9,22.56,22.56,0,0,0-3.87,7.4,30.42,30.42,0,0,0-1.35,9.23,36,36,0,0,0,1.2,9.75,21.12,21.12,0,0,0,3.39,7.17,15,15,0,0,0,5.25,4.42,14.85,14.85,0,0,0,6.7,1.52,16.75,16.75,0,0,0,8.17-1.92,22.49,22.49,0,0,0,6.2-5L207,153a2.53,2.53,0,0,0,2.7,2h6.57V92c4,.49,9.1-1.38,9.1-1.38Zm-19.85,59.48a17.22,17.22,0,0,1-4.44,4,11,11,0,0,1-5.71,1.4,9.17,9.17,0,0,1-3.79-.77,6.78,6.78,0,0,1-2.87-2.48,13.11,13.11,0,0,1-1.81-4.44,29.91,29.91,0,0,1-.63-6.64,27.2,27.2,0,0,1,.74-6.73,13.45,13.45,0,0,1,2.14-4.7,8.78,8.78,0,0,1,3.35-2.76,10.25,10.25,0,0,1,4.4-.92,11.7,11.7,0,0,1,4.63.92,10.57,10.57,0,0,1,4,3.13Z"/>
      <g>
        <path d="M66,110.23l-10.63.92a.29.29,0,0,0-.11.54c2.1,1.12,3.43,2,4.34,4.78a12.68,12.68,0,0,1,.63,3.55l1.59,34.6a.29.29,0,0,0,.29.29h1.69a.29.29,0,0,1-.29-.29l-1.66-36c-.91-4.5-2.33-5.58-4.9-7a.29.29,0,0,1,.11-.54l9.89-.85a6.38,6.38,0,0,0-.92-.07Z" fill="#1e1e1e"/>
        <path d="M70,110.82a3.5,3.5,0,0,0-2.29-.59h0l-.74.07a2.48,2.48,0,0,1,1.37.52,3.4,3.4,0,0,1,.87,2.11l.54,4.17a.29.29,0,0,0,.54.1c.31-.54.63-1.06,1-1.55l-.35-2.72A3.52,3.52,0,0,0,70,110.82Z" fill="#1e1e1e"/>
      </g>
      <g>
        <path d="M119.56,143.93c-.71.41-1.54.86-2.48,1.35a20.3,20.3,0,0,1-3.31,1.35,13.73,13.73,0,0,1-3.56.58c.25,0,.49,0,.74,0a14.62,14.62,0,0,0,4.5-.61,19.94,19.94,0,0,0,3.31-1.35c.94-.49,1.77-.94,2.48-1.35a4.87,4.87,0,0,1,1.19-.48,2.58,2.58,0,0,0-.8-.13A4.23,4.23,0,0,0,119.56,143.93Z" fill="#010549"/>
        <path d="M94.36,149.44A21.32,21.32,0,0,1,89.7,142,29,29,0,0,1,88,131.61a24.67,24.67,0,0,1,1.48-8.6,20.83,20.83,0,0,1,4.24-7,20.07,20.07,0,0,1,6.75-4.72,21.83,21.83,0,0,1,8.19-1.73h-.88a22.22,22.22,0,0,0-9,1.74A19.87,19.87,0,0,0,92,116a20.85,20.85,0,0,0-4.25,7,24.91,24.91,0,0,0-1.48,8.6A29,29,0,0,0,88,142a21.46,21.46,0,0,0,4.66,7.49,19.34,19.34,0,0,0,7,4.57,23.87,23.87,0,0,0,8.66,1.55l.9,0a23.44,23.44,0,0,1-7.88-1.53A19.3,19.3,0,0,1,94.36,149.44Z" fill="#1e1e1e"/>
        <path d="M100.66,119.9a13.09,13.09,0,0,0-3.42,7.53h1.69a13,13,0,0,1,3.42-7.53,9.56,9.56,0,0,1,6.42-2.62c-.26,0-.51,0-.77,0A10,10,0,0,0,100.66,119.9Z" fill="#1e1e1e"/>
        <path d="M102.45,144a12.27,12.27,0,0,1-2.52-4.14,21,21,0,0,1-1.22-5.94H97a21.33,21.33,0,0,0,1.22,5.94,12.13,12.13,0,0,0,2.53,4.14,9.84,9.84,0,0,0,3.72,2.44,13.49,13.49,0,0,0,4.77.8c.33,0,.64,0,.95,0a13,13,0,0,1-4-.77A10,10,0,0,1,102.45,144Z" fill="#1e1e1e"/>
      </g>
      <g>
        <path d="M163.94,143.93c-.71.41-1.54.86-2.48,1.35a20.3,20.3,0,0,1-3.31,1.35,13.65,13.65,0,0,1-3.55.58c.24,0,.48,0,.73,0a14.62,14.62,0,0,0,4.5-.61,19.59,19.59,0,0,0,3.31-1.35c1-.49,1.77-.94,2.49-1.35a4.65,4.65,0,0,1,1.18-.48,2.53,2.53,0,0,0-.8-.13A4.23,4.23,0,0,0,163.94,143.93Z" fill="#010549"/>
        <path d="M138.74,149.44a21.32,21.32,0,0,1-4.66-7.49,29,29,0,0,1-1.7-10.34,24.91,24.91,0,0,1,1.48-8.6,20.69,20.69,0,0,1,4.25-7,19.87,19.87,0,0,1,6.75-4.72,21.82,21.82,0,0,1,8.18-1.73h-.88a22.25,22.25,0,0,0-9,1.74,19.87,19.87,0,0,0-6.75,4.72,20.67,20.67,0,0,0-4.24,7,24.67,24.67,0,0,0-1.48,8.6A29,29,0,0,0,132.39,142a21.61,21.61,0,0,0,4.66,7.49,19.42,19.42,0,0,0,7,4.57,23.87,23.87,0,0,0,8.66,1.55l.9,0a23.34,23.34,0,0,1-7.87-1.53A19.25,19.25,0,0,1,138.74,149.44Z" fill="#1e1e1e"/>
        <path d="M145,119.9a13.09,13.09,0,0,0-3.42,7.53h1.69a13,13,0,0,1,3.42-7.53,9.58,9.58,0,0,1,6.42-2.62c-.25,0-.51,0-.77,0A10,10,0,0,0,145,119.9Z" fill="#1e1e1e"/>
        <path d="M146.84,144a12.13,12.13,0,0,1-2.53-4.14,21.33,21.33,0,0,1-1.22-5.94h-1.68a21,21,0,0,0,1.22,5.94,12.11,12.11,0,0,0,2.52,4.14,10,10,0,0,0,3.72,2.44,13.72,13.72,0,0,0,4.77.8c.33,0,.64,0,1,0a13,13,0,0,1-4-.77A9.84,9.84,0,0,1,146.84,144Z" fill="#1e1e1e"/>
      </g>
      <g>
        <path d="M178.65,144.7a36.46,36.46,0,0,1-1.19-9.75,30.42,30.42,0,0,1,1.35-9.23,22.46,22.46,0,0,1,3.87-7.4,18.09,18.09,0,0,1,6-4.9,17.44,17.44,0,0,1,7.93-1.77,15.83,15.83,0,0,1,6.4,1.18A7.75,7.75,0,0,1,206.3,115V91.46h0V85.13s10.9,3.61,19.12.36v-3.3c-8.64,4.81-19.86,1.71-19.86,1.71v6.32h0v23.53a16.76,16.76,0,0,0-4.75-3.18,15.8,15.8,0,0,0-6.4-1.17,17.4,17.4,0,0,0-7.92,1.76,18.14,18.14,0,0,0-6.06,4.9,22.56,22.56,0,0,0-3.87,7.4,30.42,30.42,0,0,0-1.35,9.23,36,36,0,0,0,1.2,9.75,21.12,21.12,0,0,0,3.39,7.17,16.31,16.31,0,0,0,2.64,2.73l-.39-.49A21.08,21.08,0,0,1,178.65,144.7Z" fill="#1e1e1e"/>
        <path d="M188.56,135a27.14,27.14,0,0,1,.74-6.73,13.18,13.18,0,0,1,2.13-4.7,8.82,8.82,0,0,1,3.36-2.77,10.23,10.23,0,0,1,4.39-.91,11.75,11.75,0,0,1,4.64.91,9,9,0,0,1,1.74,1v-.11a10.57,10.57,0,0,0-4-3.13,11.7,11.7,0,0,0-4.63-.92,10.25,10.25,0,0,0-4.4.92,8.78,8.78,0,0,0-3.35,2.76,13.45,13.45,0,0,0-2.14,4.7,27.2,27.2,0,0,0-.74,6.73,29.91,29.91,0,0,0,.63,6.64,13.11,13.11,0,0,0,1.81,4.44,7.06,7.06,0,0,0,2.16,2.1,13.16,13.16,0,0,1-1.72-4.29A30,30,0,0,1,188.56,135Z" fill="#1e1e1e"/>
      </g>
      <g>
        <path d="M230.61,149.33a20.7,20.7,0,0,1-4.48-7.27,29.5,29.5,0,0,1,0-19.11,20.26,20.26,0,0,1,4.48-7.23,19.74,19.74,0,0,1,7-4.57,24.1,24.1,0,0,1,7.86-1.59l-1.23,0a24.53,24.53,0,0,0-9.1,1.61,19.74,19.74,0,0,0-7,4.57,20.26,20.26,0,0,0-4.48,7.23,29.5,29.5,0,0,0,0,19.11,20.7,20.7,0,0,0,4.48,7.27,19.45,19.45,0,0,0,7,4.62,24.73,24.73,0,0,0,9.1,1.61q.63,0,1.23,0A23.84,23.84,0,0,1,237.6,154,19.45,19.45,0,0,1,230.61,149.33Z" fill="#1e1e1e"/>
        <path d="M238.32,143.52q-2.72-3.77-2.72-11t2.72-11a9.18,9.18,0,0,1,7.14-3.76c-.4,0-.81,0-1.23,0q-5.65,0-8.38,3.81t-2.72,11q0,7.19,2.72,11t8.38,3.77q.63,0,1.23-.06A9.2,9.2,0,0,1,238.32,143.52Z" fill="#1e1e1e"/>
      </g>
      <g>
        <polygon points="271.46 110.23 272.52 154.91 274.82 154.91 273.76 110.23 271.46 110.23" fill="#1e1e1e"/>
        <path d="M302.74,111.82a10.46,10.46,0,0,0-6.95-2.28c-.4,0-.79,0-1.17,0a10,10,0,0,1,5.81,2.24,13.74,13.74,0,0,1,4.07,6.08,15.15,15.15,0,0,1,1.31-2.24A12.92,12.92,0,0,0,302.74,111.82Z" fill="#1e1e1e"/>
        <path d="M280.34,110.23H278a2.64,2.64,0,0,1,2.74,2l.7,3.31a24.29,24.29,0,0,1,1.91-1.89l-.3-1.42A2.65,2.65,0,0,0,280.34,110.23Z" fill="#1e1e1e"/>
      </g>
    </g>
    <g>
      <path d="M74.7,182.86h-2a.86.86,0,0,1-.55-.16.94.94,0,0,1-.32-.41l-.67-2H66.81l-.66,2a1,1,0,0,1-.31.4.9.9,0,0,1-.55.17H63.24l4.38-11.32h2.69Zm-4.18-4.33-1-3.1c-.08-.2-.16-.43-.25-.69l-.26-.87c-.08.32-.16.61-.25.88s-.17.5-.25.7l-1,3.08Z"/>
      <path d="M89.21,171.54v11.32H87.84a1.13,1.13,0,0,1-.51-.1,1.19,1.19,0,0,1-.41-.33l-5.34-6.76c0,.2,0,.4,0,.59s0,.37,0,.53v6.07H79.32V171.54H81a.65.65,0,0,1,.21.06.94.94,0,0,1,.18.12,1.37,1.37,0,0,1,.19.21l5.39,6.8c0-.22,0-.43,0-.63s0-.4,0-.58v-6Z"/>
      <path d="M102.76,179.93a.43.43,0,0,1,.19,0,.47.47,0,0,1,.18.12l1,1.09a4.29,4.29,0,0,1-1.72,1.35A6,6,0,0,1,100,183a5.84,5.84,0,0,1-2.31-.44A5.06,5.06,0,0,1,96,181.33a5.24,5.24,0,0,1-1.09-1.83,6.89,6.89,0,0,1-.38-2.3,6.48,6.48,0,0,1,.41-2.33A5.4,5.4,0,0,1,96.07,173a5.17,5.17,0,0,1,1.79-1.2,6.06,6.06,0,0,1,2.29-.43,5.74,5.74,0,0,1,1.2.12,4.76,4.76,0,0,1,1.05.31,5.2,5.2,0,0,1,.91.47,5.49,5.49,0,0,1,.73.61l-.89,1.19a1.26,1.26,0,0,1-.2.2.54.54,0,0,1-.33.09.58.58,0,0,1-.26-.06l-.27-.16-.3-.19a3,3,0,0,0-.4-.19,4,4,0,0,0-.54-.16,3.73,3.73,0,0,0-.72-.06,2.91,2.91,0,0,0-1.19.24,2.57,2.57,0,0,0-.93.71,3.14,3.14,0,0,0-.61,1.13,5.17,5.17,0,0,0-.21,1.54,4.57,4.57,0,0,0,.24,1.54,3.32,3.32,0,0,0,.64,1.14,2.7,2.7,0,0,0,1,.7,2.73,2.73,0,0,0,1.17.25,6.3,6.3,0,0,0,.65,0,2.33,2.33,0,0,0,.55-.12,2.13,2.13,0,0,0,.49-.21,2.75,2.75,0,0,0,.45-.35l.21-.13A.54.54,0,0,1,102.76,179.93Z"/>
      <path d="M111.69,182.86h-2.64V171.54h2.64Z"/>
      <path d="M124.44,180.76v2.1h-6.83V171.54h2.63v9.22Z"/>
      <path d="M136.33,180.76v2.1H129.5V171.54h2.63v9.22Z"/>
      <path d="M151.56,182.86h-2a.86.86,0,0,1-.55-.16.94.94,0,0,1-.32-.41l-.67-2h-4.31l-.66,2a1,1,0,0,1-.31.4.9.9,0,0,1-.55.17H140.1l4.38-11.32h2.69Zm-4.18-4.33-1-3.1c-.08-.2-.16-.43-.25-.69s-.17-.56-.26-.87c-.08.32-.16.61-.25.88s-.17.5-.25.7l-1,3.08Z"/>
      <path d="M165.44,182.86h-2.37a1,1,0,0,1-.95-.5l-1.88-3.28a.89.89,0,0,0-.3-.31,1,1,0,0,0-.46-.1h-.67v4.19h-2.63V171.54h3.68a7.55,7.55,0,0,1,2.1.25,3.88,3.88,0,0,1,1.41.7,2.67,2.67,0,0,1,.8,1.07,3.44,3.44,0,0,1,.25,1.34,3.58,3.58,0,0,1-.15,1,3.39,3.39,0,0,1-.43.9,3.16,3.16,0,0,1-.72.74,3.63,3.63,0,0,1-1,.54,2.56,2.56,0,0,1,.48.33,2,2,0,0,1,.4.47Zm-5.58-6a2.76,2.76,0,0,0,.92-.13,1.76,1.76,0,0,0,.61-.38,1.33,1.33,0,0,0,.35-.56,2,2,0,0,0,.11-.7,1.47,1.47,0,0,0-.48-1.17,2.29,2.29,0,0,0-1.51-.42h-1.05v3.36Z"/>
      <path d="M175,178.56v4.3h-2.63v-4.3l-4.1-7h2.31a.81.81,0,0,1,.54.16,1,1,0,0,1,.33.41L173,175.4l.36.73a6.31,6.31,0,0,1,.29.66c.08-.22.17-.45.27-.67s.22-.47.35-.72l1.59-3.29a1.2,1.2,0,0,1,.13-.21,1,1,0,0,1,.18-.18.92.92,0,0,1,.24-.13.73.73,0,0,1,.3-.05h2.33Z"/>
      <path d="M200.22,171.54v11.32h-2.65v-4.79H193v4.79h-2.64V171.54H193v4.73h4.6v-4.73Z"/>
      <path d="M208.78,173.56v2.64h3.56v1.94h-3.56v2.7h4.65v2h-7.29V171.54h7.29v2Z"/>
      <path d="M228.94,182.86h-2a.86.86,0,0,1-.55-.16.94.94,0,0,1-.32-.41l-.67-2h-4.31l-.66,2a1,1,0,0,1-.31.4.9.9,0,0,1-.55.17h-2.05l4.38-11.32h2.69Zm-4.18-4.33-1-3.1c-.07-.2-.16-.43-.25-.69l-.26-.87c-.08.32-.16.61-.25.88s-.17.5-.25.7l-1,3.08Z"/>
      <path d="M240.38,180.76v2.1h-6.82V171.54h2.63v9.22Z"/>
      <path d="M252.27,173.62h-3.19v9.24h-2.63v-9.24h-3.18v-2.08h9Z"/>
      <path d="M267.21,171.54v11.32h-2.64v-4.79H260v4.79h-2.64V171.54H260v4.73h4.6v-4.73Z"/>
    </g>
  </g>
</svg>
