<svg xmlns="http://www.w3.org/2000/svg" viewBox="0 0 344.85 122.54">
  <title>Logo_For_Website</title>
  <g id="Layer_2" data-name="Layer 2">
    <g>
      <path d="M45,118.66H42.1a1.22,1.22,0,0,1-.77-.23,1.4,1.4,0,0,1-.45-.57l-.94-2.78H33.88l-.94,2.78a1.3,1.3,0,0,1-.43.55,1.17,1.17,0,0,1-.77.25H28.85L35,102.73H38.8Zm-5.87-6.09-1.48-4.36c-.11-.28-.22-.6-.35-1s-.25-.78-.37-1.22c-.11.45-.23.86-.35,1.24s-.24.7-.35,1l-1.46,4.34Z"/>
      <path d="M65.37,102.73v15.93H63.45a1.66,1.66,0,0,1-.71-.14,1.74,1.74,0,0,1-.58-.47l-7.51-9.5c0,.28.05.56.06.82s0,.52,0,.75v8.54H51.47V102.73h2l.4,0a1.32,1.32,0,0,1,.3.09,1.17,1.17,0,0,1,.25.16l.27.3,7.57,9.56c0-.3-.06-.6-.07-.89s0-.56,0-.81v-8.43Z"/>
      <path d="M84.44,114.54a.6.6,0,0,1,.26,0,.66.66,0,0,1,.25.17l1.47,1.54A6.11,6.11,0,0,1,84,118.19a8.4,8.4,0,0,1-3.43.64,8,8,0,0,1-3.25-.62,7.09,7.09,0,0,1-2.44-1.7,7.61,7.61,0,0,1-1.54-2.58,9.66,9.66,0,0,1-.53-3.24,8.85,8.85,0,0,1,.58-3.27A7.47,7.47,0,0,1,75,104.84a7.2,7.2,0,0,1,2.51-1.68,8.44,8.44,0,0,1,3.23-.6,8.72,8.72,0,0,1,3.17.59,7.19,7.19,0,0,1,1.26.67,6.8,6.8,0,0,1,1,.86L85,106.35a1.85,1.85,0,0,1-.28.28.76.76,0,0,1-.46.12.91.91,0,0,1-.37-.08,3,3,0,0,1-.37-.22l-.43-.27a3.24,3.24,0,0,0-.56-.27,4.32,4.32,0,0,0-.76-.22,5.82,5.82,0,0,0-1-.08,4,4,0,0,0-1.68.34,3.67,3.67,0,0,0-1.31,1,4.78,4.78,0,0,0-.85,1.6,7.14,7.14,0,0,0-.3,2.16,6.55,6.55,0,0,0,.33,2.17,5,5,0,0,0,.91,1.61,3.78,3.78,0,0,0,1.34,1,4,4,0,0,0,1.64.34,6.54,6.54,0,0,0,.92-.05,3.62,3.62,0,0,0,.77-.16,3.22,3.22,0,0,0,.68-.31,3.73,3.73,0,0,0,.65-.48,1.34,1.34,0,0,1,.28-.18A.71.71,0,0,1,84.44,114.54Z"/>
      <path d="M97,118.66H93.28V102.73H97Z"/>
      <path d="M114.92,115.71v3h-9.6V102.73H109v13Z"/>
      <path d="M131.65,115.71v3h-9.6V102.73h3.69v13Z"/>
      <path d="M153.06,118.66h-2.87a1.24,1.24,0,0,1-.77-.23,1.4,1.4,0,0,1-.45-.57l-.94-2.78H142l-.93,2.78a1.41,1.41,0,0,1-.44.55,1.15,1.15,0,0,1-.77.25H137l6.16-15.93h3.78Zm-5.87-6.09-1.48-4.36c-.11-.28-.22-.6-.35-1s-.24-.78-.37-1.22c-.11.45-.22.86-.35,1.24s-.24.7-.35,1l-1.46,4.34Z"/>
      <path d="M172.59,118.66h-3.34a1.44,1.44,0,0,1-1.34-.7l-2.64-4.63a1.33,1.33,0,0,0-.42-.43,1.29,1.29,0,0,0-.65-.13h-.94v5.89h-3.7V102.73h5.18a10.48,10.48,0,0,1,2.95.36,5.31,5.31,0,0,1,2,1,3.75,3.75,0,0,1,1.12,1.49,5.24,5.24,0,0,1,.14,3.35,4.51,4.51,0,0,1-.61,1.27,4.72,4.72,0,0,1-1,1A5.62,5.62,0,0,1,168,112a3.7,3.7,0,0,1,.68.46,3.07,3.07,0,0,1,.56.67Zm-7.85-8.44A3.77,3.77,0,0,0,166,110a2.51,2.51,0,0,0,.87-.53,2.1,2.1,0,0,0,.49-.79,3.14,3.14,0,0,0,.15-1,2.06,2.06,0,0,0-.68-1.64,3.16,3.16,0,0,0-2.12-.59h-1.48v4.72Z"/>
      <path d="M186,112.6v6.06h-3.7V112.6l-5.77-9.87h3.26a1.17,1.17,0,0,1,.76.23,1.89,1.89,0,0,1,.47.57l2.25,4.63c.19.37.36.71.51,1s.29.62.41.93c.11-.31.23-.63.37-1s.31-.65.5-1l2.23-4.63a1.26,1.26,0,0,1,.19-.28,1,1,0,0,1,.25-.26,1.25,1.25,0,0,1,.34-.19,1.42,1.42,0,0,1,.42-.07h3.28Z"/>
      <path d="M221.49,102.73v15.93h-3.71v-6.74h-6.47v6.74h-3.72V102.73h3.72v6.66h6.47v-6.66Z"/>
      <path d="M233.54,105.57v3.72h5V112h-5v3.8h6.54v2.84H229.82V102.73h10.26v2.84Z"/>
      <path d="M261.88,118.66H259a1.27,1.27,0,0,1-.78-.23,1.46,1.46,0,0,1-.44-.57l-.94-2.78H250.8l-.94,2.78a1.3,1.3,0,0,1-.43.55,1.19,1.19,0,0,1-.77.25h-2.89l6.17-15.93h3.78ZM256,112.57l-1.47-4.36c-.11-.28-.23-.6-.35-1s-.25-.78-.37-1.22c-.11.45-.23.86-.35,1.24s-.24.7-.35,1l-1.47,4.34Z"/>
      <path d="M278,115.71v3h-9.6V102.73h3.69v13Z"/>
      <path d="M294.7,105.66h-4.48v13h-3.7v-13H282v-2.93H294.7Z"/>
      <path d="M315.72,102.73v15.93H312v-6.74h-6.47v6.74h-3.72V102.73h3.72v6.66H312v-6.66Z"/>
    </g>
    <g>
      <path d="M61,20.78l2.22-18.4a.46.46,0,0,0-.69-.46C35.16,17,7.78,5.32,2.89,3a.47.47,0,0,0-.66.49L4.39,20.68a.47.47,0,0,0,.25.36,53.58,53.58,0,0,0,6.22,2.84.46.46,0,0,1,.29.38l1.62,12.53a.47.47,0,0,1-.62.51c-1.76-.6-3.08-1.13-3.84-1.46a.46.46,0,0,0-.64.49L9.23,48.81a.48.48,0,0,0,.25.36,39.48,39.48,0,0,0,4.92,2.2.46.46,0,0,1,.3.38L19.51,94.5a.48.48,0,0,0,.31.38c.83.29,4.5,1.06,6.41-.07a.46.46,0,0,0,.22-.42L23.93,54.22a.48.48,0,0,1,.52-.49C38.68,55.33,51.05,50,52.9,49.2a.44.44,0,0,0,.27-.36l1.61-13.33a.47.47,0,0,0-.69-.46C43.36,40.87,32.23,41.21,23.54,40a.48.48,0,0,1-.4-.44l-.64-12A.47.47,0,0,1,23,27c19.4,2.8,35.67-4.87,37.75-5.9A.46.46,0,0,0,61,20.78Z"/>
      <path d="M11,38a.47.47,0,0,1,.65-.49c.76.32,2.08.86,3.84,1.45a.47.47,0,0,0,.62-.5L14.48,25.88a.46.46,0,0,0-.3-.37c-1-.39-2-.81-3-1.27,0,0,0,0,0,0l1.62,12.53a.47.47,0,0,1-.62.51c-1.76-.6-3.08-1.13-3.84-1.46a.46.46,0,0,0-.64.49L9.23,48.81a.48.48,0,0,0,.25.36c1.06.56,2.12,1.06,3.19,1.51a.44.44,0,0,1-.11-.24Z" fill="#1e1e1e"/>
      <path d="M17.73,53c-1-.38-2-.8-3-1.27v0L19.51,94.5a.48.48,0,0,0,.31.38,15.29,15.29,0,0,0,3.63.53L18,53.37A.46.46,0,0,0,17.73,53Z" fill="#1e1e1e"/>
      <path d="M10.86,23.88C9.91,23.52,9,23.12,8,22.69c1,.56,2.09,1.07,3.13,1.55A.45.45,0,0,0,10.86,23.88Z" fill="#022335"/>
      <path d="M14.4,51.37c-.58-.21-1.16-.45-1.73-.69a.41.41,0,0,0,.14.12q.94.5,1.89.93A.48.48,0,0,0,14.4,51.37Z" fill="#022335"/>
      <path d="M7.72,22.31,5.56,5.12a.47.47,0,0,1,.66-.49c4.71,2.24,30.33,13.15,56.72.44l.32-2.69a.46.46,0,0,0-.69-.46C35.16,17,7.78,5.32,2.89,3a.47.47,0,0,0-.66.49L4.39,20.68a.47.47,0,0,0,.25.36c1.12.6,2.24,1.15,3.37,1.65l0,0A.48.48,0,0,1,7.72,22.31Z" fill="#1e1e1e"/>
      <path d="M23.68,41.2c7.89,1.11,21,1.34,30.78-3.06l.32-2.63a.47.47,0,0,0-.69-.46c-10.89,6.19-22.67,5.6-30.86,4.85l.05.86A.47.47,0,0,0,23.68,41.2Z" fill="#1e1e1e"/>
      <path d="M70.29,53.43a1.91,1.91,0,0,0,3.36,1,16.21,16.21,0,0,1,2.26-2.21,10.59,10.59,0,0,1,6.79-2.28,9.57,9.57,0,0,1,3.73.66,1.89,1.89,0,0,1,1.13,1.91L87,59.28s0,0,0,.06a2.06,2.06,0,0,1-.62,1.08,1.75,1.75,0,0,1-1.11.33,13.33,13.33,0,0,1-1.94-.22,14.52,14.52,0,0,0-2.51-.22,9.12,9.12,0,0,0-3.17.52,7.93,7.93,0,0,0-2.51,1.51,10.24,10.24,0,0,0-2,2.37L71.8,66.92a1.57,1.57,0,0,0-.23.75L70.14,95.11a.29.29,0,0,1-.29.3H63.21a.29.29,0,0,1-.29-.29L61.27,59.28a1.18,1.18,0,0,0,0-.27c-.92-4.39-2.34-5.46-4.88-6.82h0a.29.29,0,0,1,.11-.54L67,50.74h.21a2.57,2.57,0,0,1,3.07,2.7Z"/>
      <path d="M98.17,74.42a21.25,21.25,0,0,0,1.22,5.94,12.13,12.13,0,0,0,2.53,4.14,9.84,9.84,0,0,0,3.72,2.44,13.45,13.45,0,0,0,4.77.8,14.62,14.62,0,0,0,4.5-.61,20.48,20.48,0,0,0,3.31-1.34c.94-.5,1.77-1,2.48-1.35a4.12,4.12,0,0,1,2.07-.61,2.21,2.21,0,0,1,2,1l3.1,3.92a17.92,17.92,0,0,1-4,3.5,22.91,22.91,0,0,1-4.64,2.27,25.57,25.57,0,0,1-4.92,1.19,35.5,35.5,0,0,1-4.85.35,23.88,23.88,0,0,1-8.67-1.54,19.32,19.32,0,0,1-7-4.58,21.23,21.23,0,0,1-4.66-7.49,29,29,0,0,1-1.7-10.34,24.71,24.71,0,0,1,1.48-8.6,20.69,20.69,0,0,1,4.25-7,20.07,20.07,0,0,1,6.74-4.72,22.3,22.3,0,0,1,9-1.74,21.87,21.87,0,0,1,7.79,1.35,16.93,16.93,0,0,1,6.14,3.94,18.36,18.36,0,0,1,4,6.36,23.69,23.69,0,0,1,1.46,8.59,6.92,6.92,0,0,1-.53,3.29,2.15,2.15,0,0,1-2,.85Zm20.51-6.49a13,13,0,0,0-.59-3.94,9.42,9.42,0,0,0-1.76-3.24,8.31,8.31,0,0,0-3-2.2,10.23,10.23,0,0,0-4.21-.81,10,10,0,0,0-7.33,2.66,13,13,0,0,0-3.42,7.53Z"/>
      <path d="M142.55,74.42a21.25,21.25,0,0,0,1.22,5.94,12.13,12.13,0,0,0,2.53,4.14A9.84,9.84,0,0,0,150,86.94a13.49,13.49,0,0,0,4.77.8,14.73,14.73,0,0,0,4.51-.61,20.73,20.73,0,0,0,3.3-1.34c1-.5,1.77-1,2.49-1.35a4.12,4.12,0,0,1,2.06-.61,2.24,2.24,0,0,1,2,1l3.09,3.92a17.92,17.92,0,0,1-4,3.5,22.83,22.83,0,0,1-4.63,2.27,25.93,25.93,0,0,1-4.92,1.19,35.64,35.64,0,0,1-4.86.35,23.83,23.83,0,0,1-8.66-1.54,19.36,19.36,0,0,1-7-4.58,21.37,21.37,0,0,1-4.66-7.49,29,29,0,0,1-1.7-10.34,25,25,0,0,1,1.48-8.6,20.69,20.69,0,0,1,4.25-7,20,20,0,0,1,6.75-4.72,22.22,22.22,0,0,1,9-1.74,21.87,21.87,0,0,1,7.79,1.35,16.93,16.93,0,0,1,6.14,3.94,18.22,18.22,0,0,1,4,6.36,23.69,23.69,0,0,1,1.46,8.59,7.08,7.08,0,0,1-.52,3.29,2.17,2.17,0,0,1-2,.85Zm20.51-6.49a12.74,12.74,0,0,0-.59-3.94,9.42,9.42,0,0,0-1.76-3.24,8.22,8.22,0,0,0-3-2.2,10.22,10.22,0,0,0-4.2-.81,10,10,0,0,0-7.34,2.66,13,13,0,0,0-3.42,7.53Z"/>
      <path d="M280.66,95.41,279.6,50.73h6.58a2.64,2.64,0,0,1,2.74,2l.7,3.31a24,24,0,0,1,2.46-2.39,15.26,15.26,0,0,1,2.74-1.87A14.17,14.17,0,0,1,298,50.5a13.68,13.68,0,0,1,3.68-.46,10.44,10.44,0,0,1,6.94,2.28,13.83,13.83,0,0,1,4.07,6.08,13.82,13.82,0,0,1,2.61-3.81A14.39,14.39,0,0,1,318.7,52a15.8,15.8,0,0,1,4-1.48,19.08,19.08,0,0,1,4.24-.48,18,18,0,0,1,6.58,1.13,12.75,12.75,0,0,1,4.83,3.31,14.48,14.48,0,0,1,3,5.31,23.23,23.23,0,0,1,1,7.19l-1.49,28.43h-8.21L331.59,67q0-4.28-1.87-6.43a6.9,6.9,0,0,0-5.49-2.15,8.37,8.37,0,0,0-3.07.56A7.21,7.21,0,0,0,317,63.27,10.38,10.38,0,0,0,316.4,67V95.41H305.6V67c0-3-.61-5.17-1.81-6.54a6.69,6.69,0,0,0-5.29-2,8.69,8.69,0,0,0-4.38,1.15,14.48,14.48,0,0,0-3.76,3.16L289,95.41Z"/>
      <path d="M226.55,22.69c-8.64,4.81-19.86,1.71-19.86,1.71v6.33h0V54.26A16.57,16.57,0,0,0,202,51.08a15.84,15.84,0,0,0-6.4-1.17,17.57,17.57,0,0,0-7.93,1.76,18.11,18.11,0,0,0-6,4.9,22.56,22.56,0,0,0-3.87,7.4,30.46,30.46,0,0,0-1.35,9.23A36.18,36.18,0,0,0,177.55,83a21.17,21.17,0,0,0,3.4,7.16,14.54,14.54,0,0,0,12,5.94,16.75,16.75,0,0,0,8.17-1.92,22.49,22.49,0,0,0,6.2-5l.91,4.31a2.54,2.54,0,0,0,2.7,2h6.58V32.46c4,.49,9.09-1.38,9.09-1.38ZM206.7,82.17a16.9,16.9,0,0,1-4.44,4,11,11,0,0,1-5.7,1.4,9.13,9.13,0,0,1-3.79-.77,6.78,6.78,0,0,1-2.87-2.48,12.83,12.83,0,0,1-1.81-4.44,29.91,29.91,0,0,1-.63-6.64,27.25,27.25,0,0,1,.74-6.73,13.26,13.26,0,0,1,2.13-4.7A8.93,8.93,0,0,1,193.68,59a10.31,10.31,0,0,1,4.4-.92,11.75,11.75,0,0,1,4.64.92,10.55,10.55,0,0,1,4,3.13Z"/>
      <g>
        <path d="M67.1,50.74l-10.63.91a.29.29,0,0,0-.11.55c2.09,1.11,3.42,2,4.34,4.77a13.44,13.44,0,0,1,.63,3.55l1.59,34.6a.29.29,0,0,0,.29.29h1.68a.29.29,0,0,1-.29-.29L63,59.14C62,54.64,60.61,53.56,58,52.2a.29.29,0,0,1,.11-.55L68,50.8a7.85,7.85,0,0,0-.91-.07Z" fill="#1e1e1e"/>
        <path d="M71.11,51.32a3.53,3.53,0,0,0-2.3-.59h0L68,50.8a2.55,2.55,0,0,1,1.38.52,3.4,3.4,0,0,1,.87,2.11l.54,4.17a.29.29,0,0,0,.54.1c.31-.54.63-1.06,1-1.55L72,53.43A3.52,3.52,0,0,0,71.11,51.32Z" fill="#1e1e1e"/>
      </g>
      <g>
        <path d="M120.7,84.44c-.71.4-1.54.85-2.48,1.35a20.48,20.48,0,0,1-3.31,1.34,14,14,0,0,1-3.55.59l.73,0a14.69,14.69,0,0,0,4.51-.61,21.26,21.26,0,0,0,3.31-1.34c.94-.5,1.77-1,2.48-1.35a4.76,4.76,0,0,1,1.19-.49,2.93,2.93,0,0,0-.81-.12A4.12,4.12,0,0,0,120.7,84.44Z" fill="#010549"/>
        <path d="M95.5,89.94a21.52,21.52,0,0,1-4.66-7.49,29,29,0,0,1-1.69-10.34,24.71,24.71,0,0,1,1.48-8.6,20.67,20.67,0,0,1,4.24-7,20,20,0,0,1,6.75-4.72,21.64,21.64,0,0,1,8.19-1.72l-.88,0a22.3,22.3,0,0,0-9,1.74,20.07,20.07,0,0,0-6.74,4.72,20.69,20.69,0,0,0-4.25,7,24.71,24.71,0,0,0-1.48,8.6,29,29,0,0,0,1.7,10.34,21.23,21.23,0,0,0,4.66,7.49,19.32,19.32,0,0,0,7,4.58,23.88,23.88,0,0,0,8.67,1.54l.9,0a23.64,23.64,0,0,1-7.88-1.52A19.45,19.45,0,0,1,95.5,89.94Z" fill="#1e1e1e"/>
        <path d="M101.81,60.4a13,13,0,0,0-3.42,7.53h1.68a13.09,13.09,0,0,1,3.42-7.53,9.6,9.6,0,0,1,6.42-2.62c-.25,0-.5,0-.77,0A10,10,0,0,0,101.81,60.4Z" fill="#1e1e1e"/>
        <path d="M103.6,84.5a12.11,12.11,0,0,1-2.52-4.14,20.9,20.9,0,0,1-1.22-5.94H98.17a21.25,21.25,0,0,0,1.22,5.94,12.13,12.13,0,0,0,2.53,4.14,9.84,9.84,0,0,0,3.72,2.44,13.45,13.45,0,0,0,4.77.8l1,0a13.42,13.42,0,0,1-4-.78A10,10,0,0,1,103.6,84.5Z" fill="#1e1e1e"/>
      </g>
      <g>
        <path d="M165.09,84.44c-.72.4-1.54.85-2.49,1.35a20.73,20.73,0,0,1-3.3,1.34,14.15,14.15,0,0,1-3.56.59l.73,0a14.64,14.64,0,0,0,4.51-.61,20.86,20.86,0,0,0,3.31-1.34c.94-.5,1.77-1,2.48-1.35A4.76,4.76,0,0,1,168,84a2.93,2.93,0,0,0-.81-.12A4.12,4.12,0,0,0,165.09,84.44Z" fill="#010549"/>
        <path d="M139.89,89.94a21.23,21.23,0,0,1-4.66-7.49,28.78,28.78,0,0,1-1.7-10.34,24.71,24.71,0,0,1,1.48-8.6,20.83,20.83,0,0,1,4.24-7A20.21,20.21,0,0,1,146,51.78a21.64,21.64,0,0,1,8.19-1.72l-.88,0a22.22,22.22,0,0,0-9,1.74,20,20,0,0,0-6.75,4.72,20.69,20.69,0,0,0-4.25,7,25,25,0,0,0-1.48,8.6,29,29,0,0,0,1.7,10.34,21.37,21.37,0,0,0,4.66,7.49,19.36,19.36,0,0,0,7,4.58,23.83,23.83,0,0,0,8.66,1.54l.9,0a23.64,23.64,0,0,1-7.88-1.52A19.32,19.32,0,0,1,139.89,89.94Z" fill="#1e1e1e"/>
        <path d="M146.19,60.4a13,13,0,0,0-3.42,7.53h1.69a13,13,0,0,1,3.42-7.53,9.56,9.56,0,0,1,6.42-2.62c-.26,0-.51,0-.77,0A10,10,0,0,0,146.19,60.4Z" fill="#1e1e1e"/>
        <path d="M148,84.5a12.27,12.27,0,0,1-2.52-4.14,20.9,20.9,0,0,1-1.22-5.94h-1.69a21.25,21.25,0,0,0,1.22,5.94,12.13,12.13,0,0,0,2.53,4.14A9.84,9.84,0,0,0,150,86.94a13.49,13.49,0,0,0,4.77.8l1,0a13.3,13.3,0,0,1-4-.78A10,10,0,0,1,148,84.5Z" fill="#1e1e1e"/>
      </g>
      <g>
        <path d="M179.8,85.2a36,36,0,0,1-1.2-9.75A30.42,30.42,0,0,1,180,66.22a22.29,22.29,0,0,1,3.88-7.4,18,18,0,0,1,6-4.9,17.42,17.42,0,0,1,7.93-1.77,15.83,15.83,0,0,1,6.4,1.18,7.65,7.65,0,0,1,3.23,2.16V32h0V25.63s10.91,3.61,19.12.37V22.69c-8.64,4.81-19.86,1.71-19.86,1.71v6.33h0V54.26A16.57,16.57,0,0,0,202,51.08a15.84,15.84,0,0,0-6.4-1.17,17.57,17.57,0,0,0-7.93,1.76,18.11,18.11,0,0,0-6,4.9,22.56,22.56,0,0,0-3.87,7.4,30.46,30.46,0,0,0-1.35,9.23A36.18,36.18,0,0,0,177.55,83a21.17,21.17,0,0,0,3.4,7.16,15.87,15.87,0,0,0,2.63,2.73c-.13-.16-.26-.32-.38-.49A21,21,0,0,1,179.8,85.2Z" fill="#1e1e1e"/>
        <path d="M189.71,75.45a26.73,26.73,0,0,1,.74-6.73,13.18,13.18,0,0,1,2.13-4.7,8.84,8.84,0,0,1,3.35-2.76,10.28,10.28,0,0,1,4.4-.92,11.75,11.75,0,0,1,4.64.92,8.37,8.37,0,0,1,1.73,1v-.11a10.55,10.55,0,0,0-4-3.13,11.75,11.75,0,0,0-4.64-.92,10.31,10.31,0,0,0-4.4.92,8.93,8.93,0,0,0-3.35,2.76,13.26,13.26,0,0,0-2.13,4.7,27.25,27.25,0,0,0-.74,6.73,29.91,29.91,0,0,0,.63,6.64,12.83,12.83,0,0,0,1.81,4.44,7.15,7.15,0,0,0,2.15,2.1,13.38,13.38,0,0,1-1.71-4.29A29.91,29.91,0,0,1,189.71,75.45Z" fill="#1e1e1e"/>
      </g>
      <g>
        <polygon points="279.6 50.73 280.66 95.41 282.97 95.41 281.91 50.73 279.6 50.73" fill="#1e1e1e"/>
        <path d="M310.88,52.32A10.44,10.44,0,0,0,303.94,50c-.4,0-.79,0-1.18,0a10.05,10.05,0,0,1,5.82,2.24,13.83,13.83,0,0,1,4.07,6.08A14,14,0,0,1,314,56.16,13.07,13.07,0,0,0,310.88,52.32Z" fill="#1e1e1e"/>
        <path d="M288.48,50.73h-2.3a2.64,2.64,0,0,1,2.74,2l.7,3.31a26,26,0,0,1,1.9-1.89l-.29-1.42A2.66,2.66,0,0,0,288.48,50.73Z" fill="#1e1e1e"/>
      </g>
      <path d="M250.44,45.14l6.95,14.09a1.45,1.45,0,0,0,1.07.77L274,62.26a1.42,1.42,0,0,1,.79,2.42l-11.25,11a1.45,1.45,0,0,0-.41,1.25l2.66,15.48a1.42,1.42,0,0,1-2.06,1.5l-13.9-7.31a1.4,1.4,0,0,0-1.32,0l-13.9,7.31a1.42,1.42,0,0,1-2.06-1.5l2.66-15.48a1.39,1.39,0,0,0-.41-1.25l-11.24-11a1.42,1.42,0,0,1,.78-2.42L239.88,60a1.45,1.45,0,0,0,1.07-.77l7-14.09A1.42,1.42,0,0,1,250.44,45.14Z" fill="#ea323b"/>
    </g>
  </g>
</svg>
