<?xml version="1.0" encoding="utf-8"?>
<!DOCTYPE svg PUBLIC "-//W3C//DTD SVG 20010904//EN" "http://www.w3.org/TR/2001/REC-SVG-20010904/DTD/svg10.dtd">
<svg xmlns="http://www.w3.org/2000/svg" xml:space="preserve" xmlns:xlink="http://www.w3.org/1999/xlink" width="222" height="222" viewBox="0 0 222 222">
<desc></desc>
<rect width="222" height="222" fill="#ffffff" cx="0" cy="0" />
<g fill="#000000">
<rect x="12" y="12" width="6" height="6" />
<rect x="18" y="12" width="6" height="6" />
<rect x="24" y="12" width="6" height="6" />
<rect x="30" y="12" width="6" height="6" />
<rect x="36" y="12" width="6" height="6" />
<rect x="42" y="12" width="6" height="6" />
<rect x="48" y="12" width="6" height="6" />
<rect x="72" y="12" width="6" height="6" />
<rect x="84" y="12" width="6" height="6" />
<rect x="96" y="12" width="6" height="6" />
<rect x="120" y="12" width="6" height="6" />
<rect x="126" y="12" width="6" height="6" />
<rect x="132" y="12" width="6" height="6" />
<rect x="138" y="12" width="6" height="6" />
<rect x="150" y="12" width="6" height="6" />
<rect x="168" y="12" width="6" height="6" />
<rect x="174" y="12" width="6" height="6" />
<rect x="180" y="12" width="6" height="6" />
<rect x="186" y="12" width="6" height="6" />
<rect x="192" y="12" width="6" height="6" />
<rect x="198" y="12" width="6" height="6" />
<rect x="204" y="12" width="6" height="6" />
<rect x="12" y="18" width="6" height="6" />
<rect x="48" y="18" width="6" height="6" />
<rect x="60" y="18" width="6" height="6" />
<rect x="72" y="18" width="6" height="6" />
<rect x="90" y="18" width="6" height="6" />
<rect x="102" y="18" width="6" height="6" />
<rect x="108" y="18" width="6" height="6" />
<rect x="138" y="18" width="6" height="6" />
<rect x="144" y="18" width="6" height="6" />
<rect x="156" y="18" width="6" height="6" />
<rect x="168" y="18" width="6" height="6" />
<rect x="204" y="18" width="6" height="6" />
<rect x="12" y="24" width="6" height="6" />
<rect x="24" y="24" width="6" height="6" />
<rect x="30" y="24" width="6" height="6" />
<rect x="36" y="24" width="6" height="6" />
<rect x="48" y="24" width="6" height="6" />
<rect x="84" y="24" width="6" height="6" />
<rect x="96" y="24" width="6" height="6" />
<rect x="102" y="24" width="6" height="6" />
<rect x="108" y="24" width="6" height="6" />
<rect x="138" y="24" width="6" height="6" />
<rect x="144" y="24" width="6" height="6" />
<rect x="156" y="24" width="6" height="6" />
<rect x="168" y="24" width="6" height="6" />
<rect x="180" y="24" width="6" height="6" />
<rect x="186" y="24" width="6" height="6" />
<rect x="192" y="24" width="6" height="6" />
<rect x="204" y="24" width="6" height="6" />
<rect x="12" y="30" width="6" height="6" />
<rect x="24" y="30" width="6" height="6" />
<rect x="30" y="30" width="6" height="6" />
<rect x="36" y="30" width="6" height="6" />
<rect x="48" y="30" width="6" height="6" />
<rect x="60" y="30" width="6" height="6" />
<rect x="66" y="30" width="6" height="6" />
<rect x="72" y="30" width="6" height="6" />
<rect x="84" y="30" width="6" height="6" />
<rect x="90" y="30" width="6" height="6" />
<rect x="96" y="30" width="6" height="6" />
<rect x="132" y="30" width="6" height="6" />
<rect x="144" y="30" width="6" height="6" />
<rect x="168" y="30" width="6" height="6" />
<rect x="180" y="30" width="6" height="6" />
<rect x="186" y="30" width="6" height="6" />
<rect x="192" y="30" width="6" height="6" />
<rect x="204" y="30" width="6" height="6" />
<rect x="12" y="36" width="6" height="6" />
<rect x="24" y="36" width="6" height="6" />
<rect x="30" y="36" width="6" height="6" />
<rect x="36" y="36" width="6" height="6" />
<rect x="48" y="36" width="6" height="6" />
<rect x="66" y="36" width="6" height="6" />
<rect x="102" y="36" width="6" height="6" />
<rect x="108" y="36" width="6" height="6" />
<rect x="132" y="36" width="6" height="6" />
<rect x="150" y="36" width="6" height="6" />
<rect x="168" y="36" width="6" height="6" />
<rect x="180" y="36" width="6" height="6" />
<rect x="186" y="36" width="6" height="6" />
<rect x="192" y="36" width="6" height="6" />
<rect x="204" y="36" width="6" height="6" />
<rect x="12" y="42" width="6" height="6" />
<rect x="48" y="42" width="6" height="6" />
<rect x="60" y="42" width="6" height="6" />
<rect x="66" y="42" width="6" height="6" />
<rect x="78" y="42" width="6" height="6" />
<rect x="84" y="42" width="6" height="6" />
<rect x="90" y="42" width="6" height="6" />
<rect x="102" y="42" width="6" height="6" />
<rect x="108" y="42" width="6" height="6" />
<rect x="120" y="42" width="6" height="6" />
<rect x="132" y="42" width="6" height="6" />
<rect x="144" y="42" width="6" height="6" />
<rect x="168" y="42" width="6" height="6" />
<rect x="204" y="42" width="6" height="6" />
<rect x="12" y="48" width="6" height="6" />
<rect x="18" y="48" width="6" height="6" />
<rect x="24" y="48" width="6" height="6" />
<rect x="30" y="48" width="6" height="6" />
<rect x="36" y="48" width="6" height="6" />
<rect x="42" y="48" width="6" height="6" />
<rect x="48" y="48" width="6" height="6" />
<rect x="60" y="48" width="6" height="6" />
<rect x="72" y="48" width="6" height="6" />
<rect x="84" y="48" width="6" height="6" />
<rect x="96" y="48" width="6" height="6" />
<rect x="108" y="48" width="6" height="6" />
<rect x="120" y="48" width="6" height="6" />
<rect x="132" y="48" width="6" height="6" />
<rect x="144" y="48" width="6" height="6" />
<rect x="156" y="48" width="6" height="6" />
<rect x="168" y="48" width="6" height="6" />
<rect x="174" y="48" width="6" height="6" />
<rect x="180" y="48" width="6" height="6" />
<rect x="186" y="48" width="6" height="6" />
<rect x="192" y="48" width="6" height="6" />
<rect x="198" y="48" width="6" height="6" />
<rect x="204" y="48" width="6" height="6" />
<rect x="66" y="54" width="6" height="6" />
<rect x="72" y="54" width="6" height="6" />
<rect x="78" y="54" width="6" height="6" />
<rect x="96" y="54" width="6" height="6" />
<rect x="102" y="54" width="6" height="6" />
<rect x="120" y="54" width="6" height="6" />
<rect x="126" y="54" width="6" height="6" />
<rect x="138" y="54" width="6" height="6" />
<rect x="150" y="54" width="6" height="6" />
<rect x="12" y="60" width="6" height="6" />
<rect x="18" y="60" width="6" height="6" />
<rect x="24" y="60" width="6" height="6" />
<rect x="30" y="60" width="6" height="6" />
<rect x="36" y="60" width="6" height="6" />
<rect x="48" y="60" width="6" height="6" />
<rect x="54" y="60" width="6" height="6" />
<rect x="60" y="60" width="6" height="6" />
<rect x="66" y="60" width="6" height="6" />
<rect x="78" y="60" width="6" height="6" />
<rect x="102" y="60" width="6" height="6" />
<rect x="108" y="60" width="6" height="6" />
<rect x="132" y="60" width="6" height="6" />
<rect x="150" y="60" width="6" height="6" />
<rect x="156" y="60" width="6" height="6" />
<rect x="162" y="60" width="6" height="6" />
<rect x="174" y="60" width="6" height="6" />
<rect x="186" y="60" width="6" height="6" />
<rect x="198" y="60" width="6" height="6" />
<rect x="18" y="66" width="6" height="6" />
<rect x="24" y="66" width="6" height="6" />
<rect x="42" y="66" width="6" height="6" />
<rect x="72" y="66" width="6" height="6" />
<rect x="84" y="66" width="6" height="6" />
<rect x="90" y="66" width="6" height="6" />
<rect x="108" y="66" width="6" height="6" />
<rect x="114" y="66" width="6" height="6" />
<rect x="126" y="66" width="6" height="6" />
<rect x="144" y="66" width="6" height="6" />
<rect x="150" y="66" width="6" height="6" />
<rect x="168" y="66" width="6" height="6" />
<rect x="192" y="66" width="6" height="6" />
<rect x="198" y="66" width="6" height="6" />
<rect x="204" y="66" width="6" height="6" />
<rect x="12" y="72" width="6" height="6" />
<rect x="24" y="72" width="6" height="6" />
<rect x="48" y="72" width="6" height="6" />
<rect x="54" y="72" width="6" height="6" />
<rect x="72" y="72" width="6" height="6" />
<rect x="90" y="72" width="6" height="6" />
<rect x="96" y="72" width="6" height="6" />
<rect x="102" y="72" width="6" height="6" />
<rect x="120" y="72" width="6" height="6" />
<rect x="132" y="72" width="6" height="6" />
<rect x="144" y="72" width="6" height="6" />
<rect x="162" y="72" width="6" height="6" />
<rect x="168" y="72" width="6" height="6" />
<rect x="180" y="72" width="6" height="6" />
<rect x="186" y="72" width="6" height="6" />
<rect x="198" y="72" width="6" height="6" />
<rect x="12" y="78" width="6" height="6" />
<rect x="24" y="78" width="6" height="6" />
<rect x="36" y="78" width="6" height="6" />
<rect x="60" y="78" width="6" height="6" />
<rect x="84" y="78" width="6" height="6" />
<rect x="90" y="78" width="6" height="6" />
<rect x="102" y="78" width="6" height="6" />
<rect x="120" y="78" width="6" height="6" />
<rect x="138" y="78" width="6" height="6" />
<rect x="144" y="78" width="6" height="6" />
<rect x="150" y="78" width="6" height="6" />
<rect x="162" y="78" width="6" height="6" />
<rect x="168" y="78" width="6" height="6" />
<rect x="192" y="78" width="6" height="6" />
<rect x="18" y="84" width="6" height="6" />
<rect x="24" y="84" width="6" height="6" />
<rect x="48" y="84" width="6" height="6" />
<rect x="54" y="84" width="6" height="6" />
<rect x="60" y="84" width="6" height="6" />
<rect x="66" y="84" width="6" height="6" />
<rect x="72" y="84" width="6" height="6" />
<rect x="84" y="84" width="6" height="6" />
<rect x="96" y="84" width="6" height="6" />
<rect x="108" y="84" width="6" height="6" />
<rect x="114" y="84" width="6" height="6" />
<rect x="126" y="84" width="6" height="6" />
<rect x="132" y="84" width="6" height="6" />
<rect x="144" y="84" width="6" height="6" />
<rect x="150" y="84" width="6" height="6" />
<rect x="156" y="84" width="6" height="6" />
<rect x="162" y="84" width="6" height="6" />
<rect x="174" y="84" width="6" height="6" />
<rect x="180" y="84" width="6" height="6" />
<rect x="186" y="84" width="6" height="6" />
<rect x="24" y="90" width="6" height="6" />
<rect x="30" y="90" width="6" height="6" />
<rect x="54" y="90" width="6" height="6" />
<rect x="108" y="90" width="6" height="6" />
<rect x="120" y="90" width="6" height="6" />
<rect x="126" y="90" width="6" height="6" />
<rect x="150" y="90" width="6" height="6" />
<rect x="156" y="90" width="6" height="6" />
<rect x="168" y="90" width="6" height="6" />
<rect x="198" y="90" width="6" height="6" />
<rect x="204" y="90" width="6" height="6" />
<rect x="12" y="96" width="6" height="6" />
<rect x="24" y="96" width="6" height="6" />
<rect x="30" y="96" width="6" height="6" />
<rect x="48" y="96" width="6" height="6" />
<rect x="66" y="96" width="6" height="6" />
<rect x="72" y="96" width="6" height="6" />
<rect x="78" y="96" width="6" height="6" />
<rect x="84" y="96" width="6" height="6" />
<rect x="102" y="96" width="6" height="6" />
<rect x="108" y="96" width="6" height="6" />
<rect x="120" y="96" width="6" height="6" />
<rect x="132" y="96" width="6" height="6" />
<rect x="138" y="96" width="6" height="6" />
<rect x="162" y="96" width="6" height="6" />
<rect x="168" y="96" width="6" height="6" />
<rect x="174" y="96" width="6" height="6" />
<rect x="180" y="96" width="6" height="6" />
<rect x="198" y="96" width="6" height="6" />
<rect x="12" y="102" width="6" height="6" />
<rect x="24" y="102" width="6" height="6" />
<rect x="36" y="102" width="6" height="6" />
<rect x="78" y="102" width="6" height="6" />
<rect x="96" y="102" width="6" height="6" />
<rect x="102" y="102" width="6" height="6" />
<rect x="108" y="102" width="6" height="6" />
<rect x="126" y="102" width="6" height="6" />
<rect x="138" y="102" width="6" height="6" />
<rect x="144" y="102" width="6" height="6" />
<rect x="162" y="102" width="6" height="6" />
<rect x="168" y="102" width="6" height="6" />
<rect x="180" y="102" width="6" height="6" />
<rect x="192" y="102" width="6" height="6" />
<rect x="48" y="108" width="6" height="6" />
<rect x="78" y="108" width="6" height="6" />
<rect x="144" y="108" width="6" height="6" />
<rect x="150" y="108" width="6" height="6" />
<rect x="156" y="108" width="6" height="6" />
<rect x="162" y="108" width="6" height="6" />
<rect x="174" y="108" width="6" height="6" />
<rect x="180" y="108" width="6" height="6" />
<rect x="198" y="108" width="6" height="6" />
<rect x="12" y="114" width="6" height="6" />
<rect x="30" y="114" width="6" height="6" />
<rect x="36" y="114" width="6" height="6" />
<rect x="84" y="114" width="6" height="6" />
<rect x="90" y="114" width="6" height="6" />
<rect x="96" y="114" width="6" height="6" />
<rect x="108" y="114" width="6" height="6" />
<rect x="120" y="114" width="6" height="6" />
<rect x="126" y="114" width="6" height="6" />
<rect x="132" y="114" width="6" height="6" />
<rect x="138" y="114" width="6" height="6" />
<rect x="150" y="114" width="6" height="6" />
<rect x="168" y="114" width="6" height="6" />
<rect x="174" y="114" width="6" height="6" />
<rect x="186" y="114" width="6" height="6" />
<rect x="198" y="114" width="6" height="6" />
<rect x="204" y="114" width="6" height="6" />
<rect x="12" y="120" width="6" height="6" />
<rect x="18" y="120" width="6" height="6" />
<rect x="24" y="120" width="6" height="6" />
<rect x="30" y="120" width="6" height="6" />
<rect x="36" y="120" width="6" height="6" />
<rect x="48" y="120" width="6" height="6" />
<rect x="60" y="120" width="6" height="6" />
<rect x="72" y="120" width="6" height="6" />
<rect x="90" y="120" width="6" height="6" />
<rect x="96" y="120" width="6" height="6" />
<rect x="102" y="120" width="6" height="6" />
<rect x="108" y="120" width="6" height="6" />
<rect x="138" y="120" width="6" height="6" />
<rect x="144" y="120" width="6" height="6" />
<rect x="162" y="120" width="6" height="6" />
<rect x="186" y="120" width="6" height="6" />
<rect x="198" y="120" width="6" height="6" />
<rect x="18" y="126" width="6" height="6" />
<rect x="24" y="126" width="6" height="6" />
<rect x="36" y="126" width="6" height="6" />
<rect x="66" y="126" width="6" height="6" />
<rect x="72" y="126" width="6" height="6" />
<rect x="84" y="126" width="6" height="6" />
<rect x="90" y="126" width="6" height="6" />
<rect x="102" y="126" width="6" height="6" />
<rect x="138" y="126" width="6" height="6" />
<rect x="150" y="126" width="6" height="6" />
<rect x="162" y="126" width="6" height="6" />
<rect x="168" y="126" width="6" height="6" />
<rect x="192" y="126" width="6" height="6" />
<rect x="12" y="132" width="6" height="6" />
<rect x="42" y="132" width="6" height="6" />
<rect x="48" y="132" width="6" height="6" />
<rect x="54" y="132" width="6" height="6" />
<rect x="66" y="132" width="6" height="6" />
<rect x="84" y="132" width="6" height="6" />
<rect x="96" y="132" width="6" height="6" />
<rect x="108" y="132" width="6" height="6" />
<rect x="114" y="132" width="6" height="6" />
<rect x="120" y="132" width="6" height="6" />
<rect x="132" y="132" width="6" height="6" />
<rect x="150" y="132" width="6" height="6" />
<rect x="156" y="132" width="6" height="6" />
<rect x="162" y="132" width="6" height="6" />
<rect x="174" y="132" width="6" height="6" />
<rect x="180" y="132" width="6" height="6" />
<rect x="198" y="132" width="6" height="6" />
<rect x="12" y="138" width="6" height="6" />
<rect x="18" y="138" width="6" height="6" />
<rect x="30" y="138" width="6" height="6" />
<rect x="36" y="138" width="6" height="6" />
<rect x="42" y="138" width="6" height="6" />
<rect x="72" y="138" width="6" height="6" />
<rect x="102" y="138" width="6" height="6" />
<rect x="108" y="138" width="6" height="6" />
<rect x="126" y="138" width="6" height="6" />
<rect x="144" y="138" width="6" height="6" />
<rect x="150" y="138" width="6" height="6" />
<rect x="168" y="138" width="6" height="6" />
<rect x="186" y="138" width="6" height="6" />
<rect x="198" y="138" width="6" height="6" />
<rect x="204" y="138" width="6" height="6" />
<rect x="12" y="144" width="6" height="6" />
<rect x="24" y="144" width="6" height="6" />
<rect x="30" y="144" width="6" height="6" />
<rect x="42" y="144" width="6" height="6" />
<rect x="48" y="144" width="6" height="6" />
<rect x="54" y="144" width="6" height="6" />
<rect x="78" y="144" width="6" height="6" />
<rect x="84" y="144" width="6" height="6" />
<rect x="102" y="144" width="6" height="6" />
<rect x="108" y="144" width="6" height="6" />
<rect x="120" y="144" width="6" height="6" />
<rect x="138" y="144" width="6" height="6" />
<rect x="144" y="144" width="6" height="6" />
<rect x="162" y="144" width="6" height="6" />
<rect x="168" y="144" width="6" height="6" />
<rect x="174" y="144" width="6" height="6" />
<rect x="180" y="144" width="6" height="6" />
<rect x="186" y="144" width="6" height="6" />
<rect x="198" y="144" width="6" height="6" />
<rect x="12" y="150" width="6" height="6" />
<rect x="24" y="150" width="6" height="6" />
<rect x="66" y="150" width="6" height="6" />
<rect x="72" y="150" width="6" height="6" />
<rect x="78" y="150" width="6" height="6" />
<rect x="96" y="150" width="6" height="6" />
<rect x="102" y="150" width="6" height="6" />
<rect x="120" y="150" width="6" height="6" />
<rect x="126" y="150" width="6" height="6" />
<rect x="138" y="150" width="6" height="6" />
<rect x="144" y="150" width="6" height="6" />
<rect x="150" y="150" width="6" height="6" />
<rect x="156" y="150" width="6" height="6" />
<rect x="186" y="150" width="6" height="6" />
<rect x="192" y="150" width="6" height="6" />
<rect x="12" y="156" width="6" height="6" />
<rect x="48" y="156" width="6" height="6" />
<rect x="60" y="156" width="6" height="6" />
<rect x="78" y="156" width="6" height="6" />
<rect x="102" y="156" width="6" height="6" />
<rect x="108" y="156" width="6" height="6" />
<rect x="114" y="156" width="6" height="6" />
<rect x="126" y="156" width="6" height="6" />
<rect x="132" y="156" width="6" height="6" />
<rect x="156" y="156" width="6" height="6" />
<rect x="162" y="156" width="6" height="6" />
<rect x="168" y="156" width="6" height="6" />
<rect x="174" y="156" width="6" height="6" />
<rect x="180" y="156" width="6" height="6" />
<rect x="204" y="156" width="6" height="6" />
<rect x="60" y="162" width="6" height="6" />
<rect x="72" y="162" width="6" height="6" />
<rect x="84" y="162" width="6" height="6" />
<rect x="90" y="162" width="6" height="6" />
<rect x="96" y="162" width="6" height="6" />
<rect x="108" y="162" width="6" height="6" />
<rect x="114" y="162" width="6" height="6" />
<rect x="132" y="162" width="6" height="6" />
<rect x="138" y="162" width="6" height="6" />
<rect x="144" y="162" width="6" height="6" />
<rect x="156" y="162" width="6" height="6" />
<rect x="180" y="162" width="6" height="6" />
<rect x="186" y="162" width="6" height="6" />
<rect x="192" y="162" width="6" height="6" />
<rect x="204" y="162" width="6" height="6" />
<rect x="12" y="168" width="6" height="6" />
<rect x="18" y="168" width="6" height="6" />
<rect x="24" y="168" width="6" height="6" />
<rect x="30" y="168" width="6" height="6" />
<rect x="36" y="168" width="6" height="6" />
<rect x="42" y="168" width="6" height="6" />
<rect x="48" y="168" width="6" height="6" />
<rect x="60" y="168" width="6" height="6" />
<rect x="66" y="168" width="6" height="6" />
<rect x="90" y="168" width="6" height="6" />
<rect x="96" y="168" width="6" height="6" />
<rect x="102" y="168" width="6" height="6" />
<rect x="108" y="168" width="6" height="6" />
<rect x="120" y="168" width="6" height="6" />
<rect x="138" y="168" width="6" height="6" />
<rect x="150" y="168" width="6" height="6" />
<rect x="156" y="168" width="6" height="6" />
<rect x="168" y="168" width="6" height="6" />
<rect x="180" y="168" width="6" height="6" />
<rect x="192" y="168" width="6" height="6" />
<rect x="198" y="168" width="6" height="6" />
<rect x="12" y="174" width="6" height="6" />
<rect x="48" y="174" width="6" height="6" />
<rect x="66" y="174" width="6" height="6" />
<rect x="72" y="174" width="6" height="6" />
<rect x="84" y="174" width="6" height="6" />
<rect x="90" y="174" width="6" height="6" />
<rect x="102" y="174" width="6" height="6" />
<rect x="108" y="174" width="6" height="6" />
<rect x="120" y="174" width="6" height="6" />
<rect x="126" y="174" width="6" height="6" />
<rect x="138" y="174" width="6" height="6" />
<rect x="150" y="174" width="6" height="6" />
<rect x="156" y="174" width="6" height="6" />
<rect x="180" y="174" width="6" height="6" />
<rect x="186" y="174" width="6" height="6" />
<rect x="192" y="174" width="6" height="6" />
<rect x="198" y="174" width="6" height="6" />
<rect x="12" y="180" width="6" height="6" />
<rect x="24" y="180" width="6" height="6" />
<rect x="30" y="180" width="6" height="6" />
<rect x="36" y="180" width="6" height="6" />
<rect x="48" y="180" width="6" height="6" />
<rect x="60" y="180" width="6" height="6" />
<rect x="66" y="180" width="6" height="6" />
<rect x="84" y="180" width="6" height="6" />
<rect x="96" y="180" width="6" height="6" />
<rect x="102" y="180" width="6" height="6" />
<rect x="108" y="180" width="6" height="6" />
<rect x="114" y="180" width="6" height="6" />
<rect x="126" y="180" width="6" height="6" />
<rect x="138" y="180" width="6" height="6" />
<rect x="144" y="180" width="6" height="6" />
<rect x="156" y="180" width="6" height="6" />
<rect x="162" y="180" width="6" height="6" />
<rect x="168" y="180" width="6" height="6" />
<rect x="174" y="180" width="6" height="6" />
<rect x="180" y="180" width="6" height="6" />
<rect x="186" y="180" width="6" height="6" />
<rect x="198" y="180" width="6" height="6" />
<rect x="204" y="180" width="6" height="6" />
<rect x="12" y="186" width="6" height="6" />
<rect x="24" y="186" width="6" height="6" />
<rect x="30" y="186" width="6" height="6" />
<rect x="36" y="186" width="6" height="6" />
<rect x="48" y="186" width="6" height="6" />
<rect x="60" y="186" width="6" height="6" />
<rect x="66" y="186" width="6" height="6" />
<rect x="120" y="186" width="6" height="6" />
<rect x="132" y="186" width="6" height="6" />
<rect x="138" y="186" width="6" height="6" />
<rect x="162" y="186" width="6" height="6" />
<rect x="180" y="186" width="6" height="6" />
<rect x="192" y="186" width="6" height="6" />
<rect x="198" y="186" width="6" height="6" />
<rect x="204" y="186" width="6" height="6" />
<rect x="12" y="192" width="6" height="6" />
<rect x="24" y="192" width="6" height="6" />
<rect x="30" y="192" width="6" height="6" />
<rect x="36" y="192" width="6" height="6" />
<rect x="48" y="192" width="6" height="6" />
<rect x="60" y="192" width="6" height="6" />
<rect x="72" y="192" width="6" height="6" />
<rect x="78" y="192" width="6" height="6" />
<rect x="84" y="192" width="6" height="6" />
<rect x="102" y="192" width="6" height="6" />
<rect x="108" y="192" width="6" height="6" />
<rect x="114" y="192" width="6" height="6" />
<rect x="120" y="192" width="6" height="6" />
<rect x="132" y="192" width="6" height="6" />
<rect x="150" y="192" width="6" height="6" />
<rect x="168" y="192" width="6" height="6" />
<rect x="12" y="198" width="6" height="6" />
<rect x="48" y="198" width="6" height="6" />
<rect x="60" y="198" width="6" height="6" />
<rect x="66" y="198" width="6" height="6" />
<rect x="78" y="198" width="6" height="6" />
<rect x="96" y="198" width="6" height="6" />
<rect x="102" y="198" width="6" height="6" />
<rect x="108" y="198" width="6" height="6" />
<rect x="120" y="198" width="6" height="6" />
<rect x="126" y="198" width="6" height="6" />
<rect x="132" y="198" width="6" height="6" />
<rect x="138" y="198" width="6" height="6" />
<rect x="162" y="198" width="6" height="6" />
<rect x="186" y="198" width="6" height="6" />
<rect x="192" y="198" width="6" height="6" />
<rect x="12" y="204" width="6" height="6" />
<rect x="18" y="204" width="6" height="6" />
<rect x="24" y="204" width="6" height="6" />
<rect x="30" y="204" width="6" height="6" />
<rect x="36" y="204" width="6" height="6" />
<rect x="42" y="204" width="6" height="6" />
<rect x="48" y="204" width="6" height="6" />
<rect x="60" y="204" width="6" height="6" />
<rect x="78" y="204" width="6" height="6" />
<rect x="102" y="204" width="6" height="6" />
<rect x="132" y="204" width="6" height="6" />
<rect x="144" y="204" width="6" height="6" />
<rect x="156" y="204" width="6" height="6" />
<rect x="162" y="204" width="6" height="6" />
<rect x="174" y="204" width="6" height="6" />
<rect x="180" y="204" width="6" height="6" />
<rect x="198" y="204" width="6" height="6" />
</g>
</svg>